<svg width="644" height="397" viewBox="0 0 644 397" fill="none" xmlns="http://www.w3.org/2000/svg">
<g clip-path="url(#clip0)">
<path opacity="0.2" d="M643.998 254.743C644.01 265.489 642.711 276.196 640.133 286.627C639.265 290.138 638.257 293.58 637.109 296.952C635.702 301.11 634.074 305.189 632.232 309.172C631.302 311.183 630.32 313.157 629.285 315.095C629.301 326.115 627.035 337.018 622.631 347.116C614.664 365.232 600.465 379.881 582.618 388.395C571.444 393.732 559.233 396.536 546.853 396.607H122.251C103.359 396.65 84.7914 391.682 68.438 382.209C66.0212 380.807 63.6665 379.315 61.3737 377.731C56.3954 374.287 51.7182 370.426 47.3927 366.19C41.5367 360.455 36.3777 354.047 32.0229 347.1C21.7916 330.834 16.3717 311.998 16.3907 292.775C6.02932 274.572 -0.0125198 252.766 -0.0125198 229.335C-0.0125198 199.772 9.58881 172.803 25.3632 152.388C28.6519 148.123 32.2542 144.11 36.1401 140.383C39.9743 136.694 44.0953 133.316 48.4644 130.282C51.9586 127.849 55.612 125.655 59.3998 123.712C60.98 122.902 62.5656 122.147 64.1786 121.44C65.5948 120.811 67.0273 120.225 68.4762 119.672C70.215 119.008 71.9756 118.4 73.7581 117.849C75.5406 117.298 77.2993 116.812 79.0344 116.393C81.586 115.769 84.1814 115.261 86.8205 114.871C89.0076 114.548 91.1947 114.323 93.3817 114.148C95.1205 114.024 96.8738 113.951 98.6417 113.929H99.5985C101.545 113.929 103.481 114.006 105.4 114.137C105.602 113.732 105.821 113.321 106.023 112.916C106.789 111.46 107.581 110.004 108.38 108.575V108.537C108.516 108.29 108.653 108.044 108.795 107.803C109.44 106.637 110.113 105.482 110.802 104.337C111.119 103.79 111.431 103.275 111.753 102.755C111.824 102.629 111.895 102.509 111.977 102.383C112.306 101.836 112.639 101.288 112.978 100.741C114.666 98.0434 116.421 95.3882 118.244 92.775C118.402 92.5505 118.55 92.3316 118.708 92.1126C118.993 91.7074 119.255 91.3078 119.572 90.9081C120.327 89.8515 121.103 88.7895 121.885 87.7438C122.432 87.0047 122.979 86.2656 123.569 85.5539C124.991 83.7144 126.451 81.8859 127.943 80.0793C129.436 78.2726 131.011 76.4551 132.602 74.6758C132.82 74.4294 133.039 74.1885 133.269 73.9422L135.604 71.3965C135.718 71.276 135.817 71.1665 135.926 71.057C136.205 70.7559 136.473 70.4548 136.774 70.1592C138.026 68.8343 139.311 67.5259 140.601 66.2339C147.192 59.6765 154.214 53.5678 161.619 47.9485C161.909 47.7186 162.204 47.4996 162.494 47.2806C163.883 46.2295 165.293 45.1948 166.704 44.1765C174.465 38.6049 182.575 33.5395 190.986 29.0117C191.566 28.6832 192.156 28.3712 192.752 28.0591C200.295 24.0666 208.051 20.4917 215.985 17.3507C220.308 15.6389 224.707 14.0403 229.184 12.5549C232.147 11.5859 235.122 10.6607 238.134 9.81756C242.793 8.4781 247.51 7.27003 252.285 6.19335C266.353 3.03275 280.665 1.08033 295.064 0.357362C299.439 0.127427 303.862 0.0124606 308.335 0.0124606C329.916 -0.0161466 351.413 2.70657 372.307 8.11495C372.523 8.44183 372.819 8.70832 373.166 8.88933C373.513 9.07034 373.9 9.15993 374.292 9.14966H376.129C376.927 9.36317 377.72 9.58763 378.518 9.81756C382.976 11.1059 387.371 12.5093 391.701 14.0276L392.795 14.4218C403.483 18.2271 413.882 22.8012 423.911 28.1084C432.951 32.8829 441.656 38.2678 449.965 44.2258C451.245 45.1455 452.506 46.0744 453.749 47.0124C455.258 46.0379 456.793 45.109 458.353 44.2258C464.378 40.7918 470.777 38.0622 477.424 36.0904C491.322 31.9725 506.027 31.3966 520.204 34.4152C538.384 38.2748 554.842 47.8555 568.134 61.4819C573.549 67.0392 578.372 73.1452 582.525 79.7015C582.825 80.1723 583.126 80.6486 583.416 81.1304C586.979 86.9529 590.041 93.0682 592.569 99.4103C592.662 99.6402 592.755 99.8647 592.837 100.095C595.171 106.03 597.054 112.133 598.469 118.353C598.534 118.665 598.611 118.982 598.676 119.3C600 125.319 600.899 131.423 601.367 137.569C601.367 137.788 601.367 138.012 601.41 138.237C601.64 141.415 601.757 144.629 601.76 147.877C601.76 150.779 601.662 153.659 601.481 156.511C601.481 156.823 601.438 157.151 601.41 157.469C601.361 158.301 601.29 159.111 601.219 159.949C605.395 163.32 609.303 167.01 612.909 170.986C614.502 172.727 616.044 174.535 617.535 176.411C622.077 182.109 626.068 188.226 629.454 194.68C638.684 212.188 643.998 232.74 643.998 254.743Z" fill="#4AF42E"/>
<path opacity="0.1" d="M582.215 362.499C582.215 374.943 569.333 386.587 546.855 396.617H122.253C102.607 396.617 84.2085 389.5 68.4396 377.089C64.4755 372.381 62.3868 367.503 62.3868 362.493C62.3868 349.266 76.9528 336.921 102.137 326.486L102.848 326.202C109.956 323.284 117.901 320.53 126.583 317.941C126.802 317.875 127.026 317.815 127.245 317.738C134.134 315.712 141.463 313.793 149.231 311.979C149.477 311.924 149.717 311.864 149.963 311.82C152.96 311.108 156.016 310.446 159.138 309.783L160.341 309.531C183.06 304.812 208.884 301.068 236.889 298.527H236.922C240.844 298.162 244.808 297.836 248.814 297.547C253.271 297.192 257.782 296.89 262.342 296.611C265.825 296.387 269.351 296.195 272.889 296.02C272.902 296.014 272.916 296.012 272.93 296.012C272.944 296.012 272.958 296.014 272.971 296.02C288.931 295.215 305.422 294.794 322.284 294.794C363.981 294.794 403.393 297.356 438.315 301.911C438.348 301.905 438.381 301.905 438.413 301.911C443.783 302.612 449.054 303.351 454.193 304.139C455.664 304.369 457.129 304.599 458.568 304.834C464.367 305.772 470.017 306.763 475.517 307.807C540.201 320.119 582.215 340.042 582.215 362.499Z" fill="#4AF42E"/>
<path d="M476.513 133.187C476.513 133.187 470.728 130.839 452.323 139.286C433.919 147.734 431.622 146.666 426.86 145.396C422.098 144.126 419.44 143.797 414.334 136.74C414.334 136.74 410.73 117.19 407.225 114.158C403.721 111.125 388.925 115.887 388.925 115.887C388.925 115.887 371.16 119.966 367.776 96.1787C367.776 96.1787 370.176 78.2657 366.906 72.7691C366.906 72.7691 373.511 75.6159 384.403 71.0172C395.295 66.4185 404.016 75.9718 404.016 75.9718C404.016 75.9718 406.75 83.0888 406.476 87.3372C406.203 91.5855 407.931 93.1786 413.125 91.1256C413.125 91.1256 415.679 87.4905 412.064 81.4793C408.45 75.4681 405.869 70.9953 406.876 66.3309C407.882 61.6665 410.785 55.19 420.107 51.9545C429.43 48.719 442.088 48.1222 448.162 45.5655C454.237 43.0089 455.735 41.3774 455.735 41.3774C455.735 41.3774 451.995 45.1276 460.804 61.0314C469.612 76.9353 463.997 83.8334 463.997 83.8334C463.997 83.8334 459.311 95.0181 438.621 94.1093C438.621 94.1093 418.686 94.8374 429.556 103.301C429.556 103.301 436.516 101.883 446.921 98.5712C457.326 95.259 464.839 108.929 466.703 118.439C468.568 127.948 476.513 133.187 476.513 133.187Z" fill="#4AF42E"/>
<path d="M449.715 53.4217L449.825 53.3888C450.623 56.4218 441.716 68.6193 434.099 78.3149L434.012 78.2438C444.75 64.59 450.333 55.7703 449.715 53.4217Z" fill="#444053"/>
<path d="M434.165 78.0576L434.214 78.1781C428.129 85.9192 420.479 95.1495 414.355 102.009C413.77 102.661 413.191 103.345 412.633 104.046L412.458 103.903C413.005 103.203 413.601 102.513 414.186 101.861C420.304 95.0291 428.074 85.8043 434.165 78.0576Z" fill="#444053"/>
<path d="M412.606 103.728L412.726 103.936C401.583 117.869 400.845 139.522 400.817 139.691L398.466 136.954C398.494 136.779 401.386 117.76 412.606 103.728Z" fill="#444053"/>
<path d="M463.614 125.632C463.614 125.632 450.492 118.789 440.234 121.253C429.977 123.716 406.908 112.548 406.908 112.548C406.908 112.548 397.121 108.568 395.153 104.029C395.153 104.029 388.433 96.9123 388.045 93.2388C387.656 89.5653 381.123 80.3077 376.858 79.9518" stroke="#444053" stroke-miterlimit="10"/>
<path d="M461.684 132.218C461.684 132.218 455.068 127.751 455.839 122.55" stroke="#444053" stroke-miterlimit="10"/>
<path d="M451.536 137.983C451.536 137.983 442.071 134.545 441.147 121.056" stroke="#444053" stroke-miterlimit="10"/>
<path d="M436.276 141.476C436.276 141.476 427.232 133.965 430.234 120.837" stroke="#444053" stroke-miterlimit="10"/>
<path d="M417.909 137.808C417.909 137.808 411.895 125.162 417.248 116.933" stroke="#444053" stroke-miterlimit="10"/>
<path d="M463.74 117.294C463.74 117.294 456.9 119.484 458.365 123.076" stroke="#444053" stroke-miterlimit="10"/>
<path d="M455.484 104.883C455.484 104.883 446.325 107.79 446.112 120.76" stroke="#444053" stroke-miterlimit="10"/>
<path d="M442.711 101.861C442.711 101.861 434.373 112.165 434.985 121.526" stroke="#444053" stroke-miterlimit="10"/>
<path d="M428.112 105.902C428.112 105.902 419.834 113.829 420.889 118.236" stroke="#444053" stroke-miterlimit="10"/>
<path d="M423.12 103.104C423.12 103.104 415.356 104.495 414.268 101.944" stroke="#444053" stroke-miterlimit="10"/>
<path d="M413.032 93.7206C413.032 93.7206 416.953 98.9215 417.953 97.7554" stroke="#444053" stroke-miterlimit="10"/>
<path d="M451.919 90.4303C451.919 90.4303 432.344 91.8537 427.915 85.9411" stroke="#444053" stroke-miterlimit="10"/>
<path d="M408.937 67.508C408.937 67.508 418.117 87.2441 424.793 89.757" stroke="#444053" stroke-miterlimit="10"/>
<path d="M418.549 58.108C418.549 58.108 424.186 76.2619 431.174 81.9282" stroke="#444053" stroke-miterlimit="10"/>
<path d="M460.153 75.4462C460.153 75.4462 445.27 81.8406 436.336 75.3696" stroke="#444053" stroke-width="0.75" stroke-miterlimit="10"/>
<path d="M431.803 54.2374C431.803 54.2374 435.204 67.5791 439.786 70.8037" stroke="#444053" stroke-width="0.75" stroke-miterlimit="10"/>
<path d="M457.906 60.4949C457.906 60.4949 449.54 63.6702 446.424 61.2395" stroke="#444053" stroke-width="0.75" stroke-miterlimit="10"/>
<path d="M405.864 98.0784C405.864 98.0784 405.864 109.712 402.704 110.539" stroke="#444053" stroke-miterlimit="10"/>
<path d="M380.007 113.15C380.007 113.15 392.583 114.245 398.362 107.736" stroke="#444053" stroke-miterlimit="10"/>
<path d="M402.627 84.337C402.627 84.337 399.587 96.1349 391.2 99.3157" stroke="#444053" stroke-miterlimit="10"/>
<path d="M372.473 100.723C372.473 100.723 381.363 103.816 389.012 95.9378" stroke="#444053" stroke-miterlimit="10"/>
<path d="M392.736 74.1925C392.736 74.1925 391.899 84.2111 386.459 88.9029" stroke="#444053" stroke-miterlimit="10"/>
<path d="M372.812 85.4539C372.812 85.4539 380.188 85.5031 381.915 83.0943" stroke="#444053" stroke-miterlimit="10"/>
<path d="M426.16 123.497H216.09V229.673H426.16V123.497Z" fill="#33323D"/>
<path d="M492.265 261.929H150.652V331.819H492.265V261.929Z" fill="#33323D"/>
<path d="M232.198 279.399H407.368L442.268 397H195.285L232.198 279.399Z" fill="white"/>
<path d="M140.92 220.262V256.553V264.196V331.813H206.358V267.305H436.56V331.813H501.998V264.196V256.553V220.262H140.92Z" fill="#3F3D56"/>
<path opacity="0.5" d="M501.998 220.262H140.92V256.548H501.998V220.262Z" fill="white"/>
<path opacity="0.8" d="M482.538 243.786C485.503 243.786 487.907 241.379 487.907 238.41C487.907 235.441 485.503 233.034 482.538 233.034C479.573 233.034 477.169 235.441 477.169 238.41C477.169 241.379 479.573 243.786 482.538 243.786Z" fill="#8CCF4D"/>
<path opacity="0.8" d="M458.376 243.786C461.342 243.786 463.746 241.379 463.746 238.41C463.746 235.441 461.342 233.034 458.376 233.034C455.411 233.034 453.007 235.441 453.007 238.41C453.007 241.379 455.411 243.786 458.376 243.786Z" fill="#FA5959"/>
<path d="M418.445 97.958H223.811V213.539H418.445V97.958Z" fill="white"/>
<path d="M448.053 266.654C448.463 271.127 445.089 275.468 446.074 279.848C446.281 280.784 446.686 281.671 446.834 282.585C447.238 285.186 445.691 287.649 444.209 289.828L431.508 308.541C430.998 309.361 430.388 310.115 429.692 310.785C427.259 312.975 423.618 312.723 420.43 313.369C418.189 313.824 416.072 314.758 414.224 316.106C414.144 316.17 414.09 316.262 414.075 316.364C414.06 316.466 414.084 316.569 414.142 316.654C414.668 317.376 415.365 317.954 416.171 318.337C416.977 318.719 417.866 318.894 418.757 318.844C419.09 319.282 418.757 319.939 418.298 320.245C417.614 320.716 416.657 320.842 416.542 322.003C416.494 322.406 416.575 322.814 416.772 323.169C417.286 323.953 418.084 324.506 418.997 324.713C423.372 326.059 428.145 323.694 431.437 320.475C434.728 317.256 437.09 313.194 440.322 309.915C442.11 308.103 444.149 306.548 445.986 304.79C449.66 301.287 452.547 297.022 455.281 292.746C456.184 291.506 456.865 290.119 457.293 288.646C457.632 287.189 457.479 285.651 457.873 284.206C458.387 282.317 459.77 280.811 460.918 279.224C463.177 276.114 464.68 272.315 464.38 268.483C464.079 264.65 461.717 260.878 458.108 259.575C456.989 259.129 455.757 259.054 454.592 259.362C453.111 259.816 452.023 261.042 451.011 262.214L448.6 265.001C447.999 265.617 447.522 266.344 447.194 267.141C447.039 267.543 447.003 267.981 447.092 268.403C447.18 268.825 447.389 269.212 447.692 269.517" fill="#FBBEBE"/>
<path opacity="0.05" d="M448.053 266.654C448.463 271.127 445.089 275.468 446.074 279.848C446.281 280.784 446.686 281.671 446.834 282.585C447.238 285.186 445.691 287.649 444.209 289.828L431.508 308.541C430.998 309.361 430.388 310.115 429.692 310.785C427.259 312.975 423.618 312.723 420.43 313.369C418.189 313.824 416.072 314.758 414.224 316.106C414.144 316.17 414.09 316.262 414.075 316.364C414.06 316.466 414.084 316.569 414.142 316.654C414.668 317.376 415.365 317.954 416.171 318.337C416.977 318.719 417.866 318.894 418.757 318.844C419.09 319.282 418.757 319.939 418.298 320.245C417.614 320.716 416.657 320.842 416.542 322.003C416.494 322.406 416.575 322.814 416.772 323.169C417.286 323.953 418.084 324.506 418.997 324.713C423.372 326.059 428.145 323.694 431.437 320.475C434.728 317.256 437.09 313.194 440.322 309.915C442.11 308.103 444.149 306.548 445.986 304.79C449.66 301.287 452.547 297.022 455.281 292.746C456.184 291.506 456.865 290.119 457.293 288.646C457.632 287.189 457.479 285.651 457.873 284.206C458.387 282.317 459.77 280.811 460.918 279.224C463.177 276.114 464.68 272.315 464.38 268.483C464.079 264.65 461.717 260.878 458.108 259.575C456.989 259.129 455.757 259.054 454.592 259.362C453.111 259.816 452.023 261.042 451.011 262.214L448.6 265.001C447.999 265.617 447.522 266.344 447.194 267.141C447.039 267.543 447.003 267.981 447.092 268.403C447.18 268.825 447.389 269.212 447.692 269.517" fill="black"/>
<path d="M457.671 381.781C454.893 383.472 451.438 383.582 448.212 383.182C447.665 383.122 447.08 383.083 446.746 383.483C446.265 384.069 446.834 384.923 447.419 385.394C449.325 386.822 451.562 387.743 453.92 388.071C456.025 388.365 458.148 388.506 460.273 388.492C466.069 388.591 471.898 388.69 477.639 387.852C477.97 387.827 478.293 387.732 478.585 387.573C478.955 387.314 479.212 386.921 479.301 386.478C479.7 384.989 478.94 383.379 477.797 382.344C476.655 381.31 475.184 380.729 473.746 380.155L468.705 378.189C467.518 377.724 465.621 376.503 464.33 376.596C461.974 376.788 459.672 380.609 457.671 381.781Z" fill="#3F3D56"/>
<path opacity="0.05" d="M457.671 381.781C454.893 383.472 451.438 383.582 448.212 383.182C447.665 383.122 447.08 383.083 446.746 383.483C446.265 384.069 446.834 384.923 447.419 385.394C449.325 386.822 451.562 387.743 453.92 388.071C456.025 388.365 458.148 388.506 460.273 388.492C466.069 388.591 471.898 388.69 477.639 387.852C477.97 387.827 478.293 387.732 478.585 387.573C478.955 387.314 479.212 386.921 479.301 386.478C479.7 384.989 478.94 383.379 477.797 382.344C476.655 381.31 475.184 380.729 473.746 380.155L468.705 378.189C467.518 377.724 465.621 376.503 464.33 376.596C461.974 376.788 459.672 380.609 457.671 381.781Z" fill="black"/>
<path d="M461.187 314.743C459.092 317.541 456.916 320.765 457.436 324.231C457.715 326.098 458.759 327.746 459.524 329.47C460.483 331.843 461.192 334.309 461.64 336.828C462.428 340.491 463.215 344.164 463.696 347.881C464.243 352.081 461.673 364.229 461.433 368.461C461.372 369.479 461.258 370.585 460.547 371.318C460.268 371.609 459.896 371.866 459.776 372.222C459.699 372.584 459.758 372.962 459.94 373.284C461.126 375.961 463.549 377.948 466.239 379.087C468.929 380.226 475.474 382.18 478.393 382.284C478.781 382.331 479.174 382.278 479.536 382.131C479.93 381.895 480.24 381.54 480.422 381.118C482.532 377.083 480.504 362.718 480.537 358.157C480.537 354.325 481.461 350.58 481.297 346.781C481.16 343.732 480.345 340.759 480.05 337.715C479.564 332.728 480.477 327.724 481.395 322.797C482.095 319.025 482.795 315.247 483.692 311.513C484.238 309.241 484.873 306.942 486.125 304.944C487.114 303.373 488.459 302.064 489.591 300.564C492.728 296.447 494.121 291.259 493.468 286.122C493.402 285.618 486.185 287.956 485.556 288.23C482.966 289.332 480.583 290.869 478.508 292.774C476.868 294.361 475.528 296.491 474.063 298.276C471.996 300.794 469.957 303.332 467.945 305.891C465.659 308.829 463.406 311.78 461.187 314.743Z" fill="#464353"/>
<path opacity="0.05" d="M461.187 314.563C459.092 317.36 456.916 320.585 457.436 324.056C457.715 325.917 458.759 327.565 459.524 329.29C460.482 331.662 461.191 334.128 461.64 336.647C462.428 340.31 463.215 343.984 463.696 347.701C464.243 351.9 461.673 364.054 461.433 368.285C461.372 369.298 461.258 370.41 460.547 371.138C460.268 371.428 459.896 371.685 459.776 372.041C459.693 372.414 459.751 372.804 459.94 373.136C461.126 375.808 463.549 377.8 466.239 378.934C468.929 380.067 475.474 381.124 478.393 381.217C478.781 381.263 479.174 381.211 479.536 381.063C479.93 380.827 480.24 380.473 480.422 380.051C482.533 376.016 480.504 362.564 480.537 358.01C480.537 354.177 481.461 350.427 481.297 346.628C481.16 343.578 480.345 340.606 480.05 337.562C479.564 332.574 480.477 327.57 481.395 322.649C482.095 318.871 482.795 315.094 483.692 311.36C484.238 309.088 484.873 306.789 486.125 304.79C487.114 303.225 488.46 301.911 489.591 300.444C492.725 296.325 494.117 291.138 493.468 286.001C493.402 285.492 486.185 287.83 485.556 288.109C482.964 289.213 480.58 290.754 478.508 292.664C476.868 294.257 475.528 296.381 474.063 298.139C471.996 300.657 469.957 303.197 467.945 305.759C465.659 308.679 463.406 311.614 461.187 314.563Z" fill="black"/>
<path d="M437.845 253.148C444.346 253.148 449.617 247.871 449.617 241.361C449.617 234.851 444.346 229.574 437.845 229.574C431.343 229.574 426.073 234.851 426.073 241.361C426.073 247.871 431.343 253.148 437.845 253.148Z" fill="#FBBEBE"/>
<path d="M448.441 240.868C449.528 242.607 450.954 244.108 452.632 245.284C454.311 246.46 456.208 247.285 458.212 247.712L457.326 250.925C455.795 256.471 454.046 262.335 449.797 266.178C450.262 264.3 449.661 262.28 448.6 260.665C447.465 259.094 446.12 257.686 444.603 256.482L437.828 250.58C437.626 250.431 437.454 250.245 437.32 250.033C437.156 249.618 437.156 249.156 437.32 248.741C438.184 246.053 440.65 244.361 442.645 242.555C443.649 241.613 444.548 240.565 445.325 239.429C446.713 237.496 447.55 239.429 448.441 240.868Z" fill="#FBBEBE"/>
<path d="M422.333 229.514L422.07 227.324C423.929 227.806 425.69 226.229 426.877 224.587C428.063 222.944 429.167 221.017 430.977 220.338C433.164 219.506 435.505 220.837 437.604 221.932C439.958 223.243 442.542 224.089 445.215 224.422C445.642 224.437 446.064 224.507 446.473 224.631C447.84 225.118 448.49 226.82 448.687 228.392C448.884 229.963 448.829 231.605 449.507 232.996C450.016 234.047 450.896 234.83 451.432 235.865C452.87 238.657 451.481 242.467 453.001 245.204L449.229 241.739C448.879 241.421 448.392 241.093 448.015 241.361C447.637 241.629 447.692 242.034 447.566 242.401C447.2 243.496 445.86 243.803 444.882 243.381C443.903 242.96 443.198 242.029 442.481 241.191C440.814 239.22 438.829 237.49 436.467 236.647C435.445 236.255 434.35 236.086 433.258 236.151C432.165 236.216 431.098 236.514 430.13 237.025C428.369 238.022 427.079 240.343 424.925 240.425C421.966 240.534 420.736 235.021 419.364 232.842C419.864 232.464 420.215 231.922 420.357 231.311C420.499 230.7 420.422 230.058 420.14 229.497C420.381 229.404 422.295 229.158 422.333 229.514Z" fill="#464353"/>
<path d="M471.4 381.687C469.074 383.765 466.053 384.892 462.936 384.846C462.143 384.846 461.044 385 461.039 385.793C461.053 386.03 461.132 386.257 461.269 386.45C462.256 388.093 463.813 389.313 465.643 389.878C467.338 390.392 469.153 390.305 470.925 390.217L476.092 389.949C477.065 389.894 478.043 389.845 479.017 389.724C479.99 389.604 481.04 389.401 482.057 389.253C484.548 388.897 487.067 388.778 489.58 388.898C490.247 388.925 491.018 388.898 491.434 388.394C491.849 387.89 491.625 386.981 491.472 386.253C491.166 384.753 491.472 383.182 491.188 381.676C490.69 379.032 488.421 377.012 485.917 376.054C483.593 375.167 479.471 374.154 477.267 375.627C474.905 377.215 473.483 379.799 471.4 381.687Z" fill="#3F3D56"/>
<path d="M476.518 293.212C476.977 295.401 479.071 297.044 479.137 299.234C479.186 301.007 477.918 302.518 477.01 304.024C476.143 305.601 475.411 307.25 474.823 308.951C473.097 313.368 470.959 317.611 468.437 321.625C467.223 323.547 465.867 325.638 466.146 327.899C466.337 328.954 466.707 329.969 467.239 330.899L470.875 338.131C471.674 339.576 472.298 341.11 472.734 342.702C473.046 344.077 473.079 345.5 473.281 346.901C473.855 351.336 475.933 355.803 474.708 360.101C474.599 360.473 474.216 360.922 473.926 360.648C475.124 362.893 476.113 365.159 475.999 367.705C475.949 369.041 475.539 370.442 476.037 371.68C476.318 372.161 476.504 372.693 476.584 373.245C476.584 373.607 476.414 373.952 476.376 374.34C476.277 375.364 477.212 376.218 478.191 376.53C479.17 376.842 480.225 376.831 481.209 377.127C483.107 377.674 484.452 379.317 486.076 380.456C487.72 381.597 489.663 382.231 491.664 382.279C491.947 382.309 492.234 382.252 492.484 382.114C492.627 381.99 492.742 381.836 492.821 381.663C492.901 381.49 492.942 381.303 492.943 381.113C493.03 380.206 492.893 379.292 492.544 378.451C492.195 377.609 491.645 376.867 490.942 376.289C490.636 376.094 490.383 375.827 490.204 375.512C490.111 375.232 490.087 374.933 490.133 374.641C490.428 370.661 490.357 366.663 489.919 362.696C489.722 361.44 489.658 360.166 489.728 358.896C489.837 357.84 490.155 356.789 490.034 355.732C489.914 354.675 489.384 353.723 489.066 352.705C488.52 350.898 488.662 348.96 488.602 347.066C488.503 343.781 487.754 340.562 487.005 337.365C486.715 336.111 486.387 334.792 485.496 333.861C484.742 333.072 483.522 332.311 483.807 331.26C483.962 330.871 484.196 330.519 484.495 330.226C484.848 329.784 485.107 329.275 485.257 328.73C485.406 328.185 485.443 327.616 485.365 327.056C485.685 327.141 486.024 327.111 486.324 326.971C486.624 326.831 486.865 326.589 487.005 326.289C492.916 323.503 497.695 317.919 499.8 311.721C499.918 311.264 500.102 310.827 500.346 310.424C500.893 309.657 501.845 309.329 502.687 308.902C505.333 307.572 507.165 305.07 508.843 302.622C509.822 301.199 510.795 299.732 511.216 298.062C511.446 296.983 511.556 295.881 511.544 294.777L511.692 289.073C511.722 288.704 511.685 288.333 511.583 287.978C511.443 287.637 511.235 287.33 510.97 287.074C509.367 285.365 507.259 284.214 504.956 283.79C503.403 283.51 501.817 283.565 500.248 283.434C497.202 283.182 494.195 282.24 491.15 282.459C486.36 282.81 482.101 286.133 479.842 290.376C479.05 291.892 478.218 293.212 476.518 293.212Z" fill="#464353"/>
<path d="M449.945 256.115C450.014 256.995 449.897 257.879 449.6 258.71C449.229 259.51 448.288 260.128 447.473 259.805C447.72 259.258 447.063 258.606 446.456 258.677C446.156 258.744 445.877 258.883 445.643 259.083C445.408 259.282 445.226 259.536 445.111 259.822C444.704 260.635 444.568 261.558 444.723 262.455C444.915 263.55 445.56 264.645 445.39 265.74C445.254 266.67 444.57 267.601 444.936 268.477C445.172 268.871 445.467 269.225 445.811 269.528C446.292 270.118 446.528 270.871 446.47 271.63C446.412 272.389 446.064 273.097 445.5 273.607L454.674 273.787C454.341 275.326 455.024 276.897 455.812 278.26C458.015 282.007 461.055 285.192 464.692 287.567C468.33 289.941 472.468 291.44 476.78 291.947C476.548 292.085 476.348 292.272 476.196 292.496C476.045 292.72 475.944 292.975 475.902 293.242C475.861 293.51 475.878 293.783 475.955 294.043C476.031 294.303 476.163 294.542 476.343 294.744C477.087 295.483 478.35 295.39 479.285 294.909C480.22 294.427 480.958 293.633 481.811 293.02C483.315 291.946 485.155 291.449 486.994 291.618C488.142 291.728 489.258 292.1 490.412 292.166C493.812 292.347 496.732 289.899 499.986 288.881C502.369 288.147 505.065 288.147 507.094 286.658C507.957 286.018 508.663 284.967 508.411 283.921C508.198 283.321 507.861 282.773 507.422 282.311C506.268 280.822 505.59 279.027 504.77 277.335C503.134 273.982 500.884 270.966 498.137 268.444C496.068 266.628 493.876 264.958 491.576 263.446C491.016 263.028 490.42 262.661 489.794 262.351C488.959 262.078 488.144 261.747 487.355 261.36C486.262 260.681 485.655 259.482 484.829 258.513C483.008 256.389 480.214 255.409 477.972 253.739C476.469 252.644 475.146 251.144 473.347 250.602C472.477 250.339 471.548 250.318 470.673 250.055C468.694 249.453 467.25 247.69 465.304 246.978C463.762 246.431 462.067 246.562 460.437 246.359C458.645 246.137 456.933 245.485 455.445 244.46C454.952 244.061 454.398 243.743 453.805 243.518C451.35 242.768 451.148 247.35 450.918 248.943C450.552 251.38 449.945 253.723 449.945 256.115Z" fill="#4AF42E"/>
<path d="M452.34 271.499C452.75 275.972 449.376 280.308 450.36 284.693C450.568 285.629 450.973 286.516 451.12 287.43C451.531 290.031 449.978 292.494 448.496 294.668L435.794 313.336C435.285 314.157 434.675 314.911 433.979 315.581C431.546 317.771 427.904 317.519 424.717 318.165C422.476 318.621 420.359 319.555 418.511 320.902C418.43 320.966 418.377 321.058 418.362 321.16C418.347 321.261 418.371 321.365 418.429 321.45C418.953 322.173 419.651 322.752 420.457 323.135C421.263 323.517 422.153 323.691 423.044 323.64C423.377 324.083 423.044 324.735 422.584 325.041C421.901 325.517 420.944 325.643 420.829 326.804C420.781 327.207 420.861 327.615 421.059 327.97C421.574 328.752 422.372 329.305 423.284 329.514C427.658 330.861 432.432 328.496 435.723 325.277C439.015 322.057 441.377 317.995 444.614 314.716C446.402 312.904 448.441 311.349 450.273 309.592C453.953 306.088 456.807 301.823 459.568 297.547C460.47 296.307 461.151 294.92 461.58 293.447C461.919 291.991 461.766 290.452 462.16 289.007C462.674 287.118 464.057 285.607 465.205 284.025C467.463 280.915 468.967 277.116 468.666 273.284C468.366 269.451 466.004 265.679 462.395 264.377C461.277 263.928 460.043 263.853 458.879 264.163C457.403 264.617 456.309 265.844 455.298 267.015L452.887 269.802C452.285 270.417 451.81 271.145 451.487 271.942C451.33 272.343 451.294 272.78 451.381 273.201C451.468 273.622 451.676 274.008 451.979 274.313" fill="#FBBEBE"/>
<path d="M458.77 253.121C457.097 253.219 455.26 253.383 454.078 254.577C453.587 255.125 453.188 255.75 452.897 256.427C451.755 258.765 450.639 261.207 450.557 263.807C450.486 265.888 451.104 267.919 451.405 269.977C451.667 271.685 451 273.426 450.858 275.156C452.93 274.521 455.664 273.656 457.545 272.583C458.777 271.776 460.087 271.093 461.454 270.546C463.45 269.884 466.802 271.023 468.683 271.959C468.787 270.623 467.792 268.307 467.895 266.972C467.912 266.412 468.012 265.859 468.191 265.329C468.474 264.768 468.809 264.235 469.191 263.736C469.916 262.561 470.251 261.186 470.145 259.808C470.04 258.431 469.501 257.123 468.606 256.071C466.928 254.177 464.292 253.466 461.783 253.175C460.2 252.99 458.606 252.934 457.015 253.006" fill="#4AF42E"/>
<path d="M211.054 214.82L200.272 199.162C200.272 199.162 200.07 195.286 199.364 194.383C198.659 193.48 199.211 191.465 199.211 191.465C199.211 191.465 199.971 190.37 199.315 190.255C198.659 190.14 199.211 187.688 199.211 187.688L199.162 183.762C199.162 183.762 199.769 179.985 199.266 179.081C199.117 178.836 199.043 178.553 199.052 178.267C199.06 177.98 199.152 177.702 199.315 177.466C199.315 177.466 199.917 175.304 199.315 174.729C198.714 174.154 198.861 170.804 199.009 168.132C199.157 165.46 197.954 163.955 197.954 163.555C197.954 163.156 193.973 159.225 193.973 158.869C193.973 158.513 191.453 157.057 189.938 156.679C188.423 156.301 187.674 155.973 187.724 155.77C187.773 155.568 185.356 154.768 185.356 154.768C185.356 154.768 183.24 154.615 182.431 153.559C181.622 152.502 179.15 152.195 179.09 152.184L179.041 151.976C179.041 151.9 179.013 151.823 178.997 151.746C179.197 151.428 179.379 151.099 179.544 150.761L179.686 150.454C180.572 150.46 181.437 150.19 182.163 149.683C182.52 149.386 182.812 149.018 183.02 148.602C183.228 148.187 183.348 147.732 183.371 147.268C183.414 146.337 183.211 145.412 182.781 144.586C182.338 143.682 181.687 142.741 181.917 141.755C182.015 141.334 182.267 140.961 182.398 140.545C182.594 139.733 182.464 138.876 182.037 138.158C181.654 137.43 181.124 136.784 180.698 136.078C180.157 135.174 179.795 134.174 179.631 133.133C179.601 132.579 179.469 132.035 179.243 131.529C179.014 131.172 178.712 130.867 178.357 130.636C176.78 129.509 174.876 128.932 172.939 128.994C171.566 129.038 170.205 129.41 168.838 129.24C168.024 129.1 167.222 128.891 166.443 128.616C164.754 128.112 162.802 127.91 161.331 128.879C159.86 129.848 159.275 131.753 158.274 133.259C157.394 134.572 156.087 135.678 155.431 137.091C155.431 137.091 155.431 137.036 155.431 137.014C155.266 137.336 155.139 137.676 155.054 138.027C154.866 139.142 154.943 140.286 155.278 141.367C155.352 141.948 155.643 142.48 156.093 142.856C156.59 143.179 157.274 143.102 157.853 143.206L157.788 143.491C157.198 146.321 157.691 149.269 159.171 151.752C160.651 154.234 163.008 156.069 165.776 156.893C165.776 156.997 165.776 157.095 165.776 157.199C165.775 157.488 165.757 157.777 165.721 158.064C165.721 158.064 160.653 157.019 159.291 157.725C157.93 158.431 155.262 158.984 154.857 159.367C154.452 159.75 153.446 159.471 152.539 161.836C151.631 164.201 151.533 166.616 150.352 167.727C149.171 168.838 148.591 169.588 148.536 170.393C148.482 171.198 148.689 171.4 148.236 171.652C147.782 171.904 147.142 172.961 147.328 173.366C147.397 173.643 147.383 173.934 147.285 174.203C147.188 174.471 147.012 174.704 146.781 174.871C146.542 175.04 146.351 175.268 146.227 175.533C146.104 175.798 146.051 176.091 146.076 176.382C146.076 176.382 145.77 177.477 145.064 177.746C144.359 178.014 143.905 179.656 143.905 179.656L141.62 182.284L137.092 177.269C136.752 176.894 136.278 176.67 135.773 176.644C135.268 176.618 134.773 176.794 134.397 177.132L132.171 179.136C131.314 179.345 130.539 179.806 129.946 180.461C129.464 180.962 129.073 181.544 128.792 182.18L127.579 183.275C127.195 183.751 126.96 184.329 126.904 184.938C126.848 185.547 126.972 186.158 127.261 186.697L130.165 189.91V189.938C129.136 190.028 128.159 190.427 127.36 191.082C123.029 194.914 122.986 198.434 123.631 200.044C124.276 201.653 129.777 207.845 129.777 207.845C129.777 207.845 132.97 212 137.579 214.207L137.546 214.245C137.451 214.344 137.362 214.448 137.278 214.557L137.202 214.656L137.131 214.754L137.049 214.875C137.027 214.906 137.007 214.939 136.988 214.973L136.901 215.116C136.881 215.147 136.862 215.18 136.846 215.214C136.808 215.28 136.775 215.346 136.742 215.411C136.73 215.433 136.719 215.454 136.71 215.477C136.666 215.564 136.622 215.652 136.584 215.751L136.54 215.849C136.513 215.915 136.491 215.981 136.464 216.052C136.447 216.095 136.432 216.139 136.42 216.183L136.354 216.38C136.336 216.427 136.322 216.474 136.31 216.523C136.31 216.594 136.267 216.665 136.25 216.742C136.234 216.818 136.223 216.829 136.212 216.878C136.201 216.928 136.157 217.114 136.136 217.24C136.136 217.284 136.136 217.333 136.108 217.382C136.081 217.431 136.081 217.552 136.064 217.639C136.048 217.727 136.064 217.76 136.064 217.826L136.032 218.072V218.269C136.032 218.362 136.032 218.455 136.004 218.554C135.977 218.652 136.004 218.669 136.004 218.729C136.004 218.888 136.004 219.046 136.004 219.216C135.906 225.107 136.25 225.961 136.25 225.961C136.475 226.505 136.842 226.979 137.312 227.332C137.783 227.686 138.339 227.906 138.924 227.97C139.211 227.993 139.499 227.978 139.782 227.926C142.407 227.472 148.531 226.415 150.718 226.831C152.025 227.072 154.436 226.711 156.153 226.388L156.607 226.3L156.918 227.302L157.913 227.028L158.761 227.516L159.308 227.828C160.303 231.2 164.338 230.05 164.338 230.05L165.295 230.598L175.022 230.85C176.114 231.509 177.268 232.059 178.467 232.492C178.625 232.544 178.788 232.581 178.953 232.602C179.863 232.676 180.776 232.692 181.687 232.651C182.431 232.651 183.005 232.602 183.005 232.602C183.005 232.602 182.906 229.957 182.764 226.996C185.779 226.921 188.788 226.674 191.775 226.257C196.969 225.348 199.135 220.618 199.933 218.088C200.172 219.121 200.342 220.169 200.441 221.225C200.654 222.154 200.924 223.068 201.251 223.963C201.529 224.678 201.897 225.354 202.344 225.977C206.172 224.669 203.853 222.692 203.05 221.849C202.246 221.006 203.596 220.289 203.596 220.289C203.596 220.289 204.657 219.583 204.553 218.931C204.449 218.28 204.4 217.574 207.834 217.623C211.268 217.672 211.054 214.82 211.054 214.82ZM157.842 182.678C157.886 182.963 158.389 186.067 158.794 186.883C158.915 187.421 158.953 187.975 158.909 188.525C156.88 188.361 154.764 188.273 154.764 188.273C154.824 188.347 154.861 188.436 154.873 188.531L154.551 188.459L154.092 188.35L157.831 182.651L157.842 182.678ZM150.428 194.482L153.944 195.029L154.239 195.073C154.14 195.615 154.079 196.164 154.059 196.715C154.059 196.77 154.135 196.83 154.25 196.901C154.201 197.178 154.179 197.458 154.184 197.739C154.239 198.013 155.879 198.615 157.766 199.113C157.739 199.217 157.717 199.316 157.689 199.403C156.022 198.527 153.403 198.117 153.102 197.465C152.801 196.814 143.878 193.693 143.878 193.693L142.992 193.25L145.338 193.693L145.983 193.628C147.445 194.008 148.929 194.294 150.428 194.482Z" fill="url(#paint0_linear)"/>
<path d="M199.583 217.01C199.583 217.01 198.189 225.463 191.097 226.711C184.005 227.959 160.33 227.713 160.33 227.713C160.33 227.713 146.792 225.758 141.898 214.311C137.005 202.863 133.855 198.303 138.071 198.106C142.287 197.909 164.896 205.77 166.192 205.858C167.487 205.946 200.835 188.454 199.583 217.01Z" fill="#65617D"/>
<path opacity="0.05" d="M199.583 217.01C199.583 217.01 198.189 225.463 191.097 226.711C184.005 227.959 160.33 227.713 160.33 227.713C160.33 227.713 146.792 225.758 141.898 214.311C137.005 202.863 133.855 198.303 138.071 198.106C142.287 197.909 164.896 205.77 166.192 205.858C167.487 205.946 200.835 188.454 199.583 217.01Z" fill="black"/>
<path d="M136.097 226.421C136.317 226.962 136.679 227.434 137.145 227.785C137.611 228.137 138.163 228.356 138.744 228.419C139.031 228.437 139.319 228.42 139.602 228.37C142.199 227.921 148.29 226.87 150.439 227.275C151.729 227.51 154.119 227.154 155.819 226.837C156.951 226.623 157.782 226.421 157.782 226.421C157.782 226.421 155.781 219.769 155.535 219.572C155.289 219.375 146.541 214.097 146.541 214.097L139.618 213.599C138.687 213.739 137.844 214.233 137.267 214.979C136.54 215.866 135.911 217.316 135.868 219.698C135.753 225.561 136.097 226.421 136.097 226.421Z" fill="#3F3D56"/>
<path opacity="0.05" d="M136.097 226.421C136.317 226.962 136.679 227.434 137.145 227.785C137.611 228.137 138.163 228.356 138.744 228.419C138.066 227.543 137.438 226.629 136.863 225.682L136.901 220.831C136.763 219.501 136.939 218.157 137.414 216.906C137.889 215.656 138.649 214.535 139.635 213.632C139.635 213.632 135.988 213.878 135.884 219.731C135.78 225.583 136.097 226.421 136.097 226.421Z" fill="black"/>
<path opacity="0.1" d="M166.121 215.811L172.567 210.758L182.704 200.756L179.97 200.63C179.56 200.892 178.412 201.725 178.368 202.721C178.319 203.942 175.634 202.809 174.229 203.504C172.824 204.199 165.989 212.975 164.792 212.915C163.594 212.855 162.643 212.307 162.14 213.161L162.107 213.216L166.121 215.811Z" fill="black"/>
<path opacity="0.1" d="M137.251 214.99C137.481 215.099 137.716 215.209 137.951 215.307C142.844 217.409 148.886 221.811 149.34 222.61C149.613 223.098 153.118 225.227 155.819 226.826C156.951 226.612 157.782 226.41 157.782 226.41C157.782 226.41 155.781 219.758 155.535 219.561C155.289 219.364 146.541 214.086 146.541 214.086L139.618 213.588C138.677 213.729 137.828 214.232 137.251 214.99Z" fill="black"/>
<path d="M123.669 200.657C124.314 202.256 129.76 208.409 129.76 208.409C129.76 208.409 133.205 212.909 138.104 214.979C143.003 217.048 149.039 221.483 149.488 222.282C149.777 222.797 153.681 225.151 156.426 226.766L157.044 227.127L158.406 227.921L159.127 228.331C159.127 228.331 160.8 226.99 162.468 225.638C164.136 224.286 165.749 222.961 165.749 222.901C165.749 222.84 166.449 221.05 166.296 220.952C166.142 220.853 165.874 220.207 165.24 219.402C164.571 218.51 163.699 217.789 162.698 217.3C161.249 216.554 160.093 215.341 159.417 213.856C159.417 213.856 159.198 213.698 158.87 213.484C158.19 213.016 157.431 212.677 156.629 212.482C155.535 212.345 153.479 210.095 153.479 210.095C152.68 209.574 152.013 208.873 151.533 208.048C150.986 206.953 143.26 201.621 142.544 201.128L161.32 213.205L165.814 216.096L172.261 211.048L182.398 201.046L179.052 200.892C174.131 200.679 165.382 200.345 164.289 200.597C163.393 200.803 162.47 200.864 161.555 200.777C161.555 200.777 159.062 200.887 157.41 200.016C155.759 199.146 153.162 198.735 152.861 198.089C152.561 197.443 143.725 194.345 143.725 194.345C143.725 194.345 131.696 187.945 127.393 191.744C123.09 195.544 123.018 199.047 123.669 200.657Z" fill="#65617D"/>
<path d="M162.474 163.949L164.021 169.101L166.022 180.702L173.365 181.2L175.465 177.696L177.586 174.171C177.586 174.171 178.91 169.484 179.861 164.951C180.697 160.938 181.25 157.04 180.337 156.619C179.522 156.247 178.992 154.894 178.642 153.438C178.598 153.263 178.56 153.077 178.527 152.891C178.282 151.66 178.118 150.415 178.035 149.162C178.035 149.162 162.654 148.363 164.803 154.714C165.186 155.799 165.382 156.941 165.382 158.092C165.382 158.387 165.382 158.677 165.328 158.951C165.221 159.936 164.913 160.888 164.421 161.748C163.93 162.608 163.267 163.358 162.474 163.949Z" fill="#EE8E9E"/>
<path d="M159.28 163.101L159.827 171.86L161.074 179.311L162.474 182.766L163.726 201.642C163.726 201.642 175.755 203.039 178.696 201.615C178.913 201.532 179.103 201.39 179.243 201.204C182.781 195.856 181.622 180.362 181.622 180.362L182.967 170.36L182.07 165.17L179.883 164.94L178.21 164.76C178.21 164.76 177.832 165.225 177.286 165.948C175.804 167.902 173.081 171.756 173.267 173.36C173.513 175.55 172.966 177.811 172.113 178.162C171.26 178.512 170.566 179.114 170.418 178.512C170.206 178.007 170.152 177.449 170.265 176.913C170.418 176.059 169.614 173.459 169.614 173.459C169.614 173.459 168.269 170.41 168.368 169.112C168.466 167.815 168.22 166.309 167.821 165.959C167.422 165.608 166.87 165.258 167.318 163.659C167.766 162.061 165.35 158.946 165.35 158.946L159.28 163.101Z" fill="#E3E8F4"/>
<path opacity="0.1" d="M175.186 184.956L175.689 199.907L178.571 201.511C178.787 201.424 178.976 201.28 179.117 201.095C182.655 195.746 181.496 180.253 181.496 180.253L182.846 170.251L181.944 165.061L179.757 164.831C180.599 160.818 181.146 156.925 180.233 156.498C179.418 156.126 178.888 154.774 178.543 153.323L176.985 163.9C176.985 163.9 177.116 164.853 177.16 165.838C177.225 166.461 177.182 167.091 177.034 167.7C176.832 168.518 176.799 169.369 176.936 170.202C176.034 171.789 175.585 174.735 175.366 177.576C175.071 181.353 175.186 184.956 175.186 184.956Z" fill="black"/>
<path d="M178.587 153.06C178.587 153.06 181.108 153.372 181.906 154.424C182.704 155.475 184.804 155.628 184.804 155.628C184.804 155.628 187.199 156.427 187.149 156.624C187.1 156.821 187.849 157.128 189.336 157.528C190.824 157.927 193.333 159.378 193.333 159.718C193.333 160.057 197.276 163.966 197.276 164.366C197.276 164.765 198.473 166.265 198.325 168.915C198.178 171.565 198.025 174.937 198.626 175.485C199.228 176.032 198.626 178.184 198.626 178.184C198.465 178.418 198.374 178.694 198.365 178.978C198.356 179.263 198.43 179.544 198.577 179.788C199.075 180.685 198.473 184.436 198.473 184.436L198.528 188.339C198.528 188.339 197.981 190.786 198.626 190.89C199.271 190.994 198.528 192.089 198.528 192.089C198.528 192.089 197.981 194.087 198.675 194.991C199.37 195.894 199.572 199.737 199.572 199.737L210.261 215.291C210.261 215.291 210.415 218.143 207.019 218.094C203.624 218.045 203.667 218.745 203.771 219.391C203.875 220.037 202.82 220.744 202.82 220.744C202.82 220.744 201.475 221.444 202.273 222.293C203.071 223.141 205.368 225.096 201.573 226.393C201.126 225.776 200.759 225.105 200.48 224.395C200.158 223.513 199.892 222.611 199.681 221.696C199.681 221.696 199.331 217.891 198.632 217.393C197.932 216.895 198.03 214.491 198.03 214.491C198.03 214.491 199.031 212.542 197.631 211.754C196.231 210.966 175.957 199.71 175.957 199.71L175.465 184.753C175.465 184.753 175.115 173.7 177.215 169.999C177.077 169.167 177.111 168.316 177.313 167.497C177.663 166.599 177.264 163.698 177.264 163.698L178.587 153.06Z" fill="#3F3D56"/>
<path opacity="0.1" d="M165.497 159.082C165.497 159.082 160.478 158.048 159.127 158.749C157.777 159.449 155.136 159.997 154.753 160.391C154.37 160.785 153.359 160.495 152.457 162.844C151.554 165.192 151.462 167.596 150.308 168.696C149.154 169.796 148.564 170.546 148.514 171.346C148.465 172.145 148.662 172.348 148.214 172.594C147.765 172.84 147.12 173.897 147.312 174.297C147.503 174.696 157.7 183.499 157.7 183.499C157.7 183.499 158.203 186.85 158.652 187.698C159.1 188.547 158.154 200.252 157.153 201.051C156.153 201.85 163.873 201.785 163.873 201.785C163.873 201.785 164.223 194.12 164.524 193.704C164.825 193.288 164.322 185.104 164.322 185.104C164.322 185.104 164.272 178.101 164.923 176.251C165.574 174.401 165.47 168.247 165.47 168.247C165.47 168.247 166.044 164.557 166.744 163.698C167.444 162.838 165.497 159.082 165.497 159.082Z" fill="black"/>
<path d="M165.35 158.935C165.35 158.935 160.33 157.9 158.98 158.595C157.629 159.291 154.983 159.849 154.605 160.238C154.228 160.626 153.206 160.336 152.309 162.69C151.412 165.044 151.308 167.437 150.16 168.537C149.012 169.638 148.411 170.388 148.361 171.187C148.312 171.986 148.514 172.189 148.061 172.441C147.607 172.692 146.967 173.738 147.164 174.138C147.361 174.537 157.553 183.341 157.553 183.341C157.553 183.341 158.05 186.691 158.504 187.54C158.958 188.388 158.001 200.093 157 200.892C156 201.692 163.748 201.621 163.748 201.621C163.748 201.621 164.097 193.956 164.393 193.545C164.688 193.135 164.196 184.939 164.196 184.939C164.196 184.939 164.147 177.943 164.797 176.092C165.448 174.242 165.371 168.088 165.371 168.088C165.371 168.088 165.946 164.398 166.645 163.539C167.345 162.679 165.35 158.935 165.35 158.935Z" fill="#3F3D56"/>
<path opacity="0.1" d="M164.825 154.703C165.208 155.788 165.404 156.93 165.404 158.081C167.858 158.8 170.481 158.679 172.858 157.737C175.235 156.795 177.23 155.086 178.527 152.88C178.282 151.649 178.118 150.404 178.035 149.151C178.035 149.151 162.676 148.347 164.825 154.703Z" fill="black"/>
<path d="M157.23 146.797C157.228 149.733 158.351 152.557 160.368 154.687C162.384 156.817 165.14 158.092 168.068 158.247C170.995 158.403 173.87 157.428 176.101 155.523C178.331 153.618 179.746 150.929 180.054 148.01C180.363 145.091 179.541 142.165 177.757 139.835C175.974 137.506 173.366 135.95 170.471 135.489C167.576 135.028 164.615 135.697 162.198 137.358C159.781 139.019 158.093 141.545 157.482 144.416C157.314 145.199 157.23 145.997 157.23 146.797Z" fill="#EE8E9E"/>
<path d="M149.887 173.317L147.153 174.165C147.223 174.441 147.208 174.732 147.111 175C147.013 175.267 146.837 175.499 146.606 175.665C146.368 175.831 146.179 176.058 146.057 176.321C145.935 176.585 145.885 176.876 145.912 177.165C145.912 177.165 145.611 178.26 144.911 178.518C144.211 178.775 143.763 180.417 143.763 180.417L141.467 183.067C141.467 183.067 140.614 183.768 140.767 184.118C140.92 184.468 139.865 184.567 139.865 184.567L140.411 193.469L145.157 194.372L148.104 194.071L150.499 193.173L152.599 191.919L153.545 189.472L157.744 183.067L149.887 173.317Z" fill="#3F3D56"/>
<path d="M140.548 185.251C140.548 185.251 134.457 176.454 129.908 181.2C125.359 185.947 131.756 193.655 133.254 193.403C134.752 193.151 141.898 192.752 141.898 192.752L140.548 185.251Z" fill="#EE8E9E"/>
<path d="M154.898 181.447L127.991 167.696C127.576 167.485 127.069 167.649 126.858 168.064L116.366 188.646C116.154 189.061 116.319 189.569 116.733 189.781L143.64 203.532C144.054 203.743 144.561 203.579 144.773 203.164L155.265 182.581C155.476 182.167 155.312 181.659 154.898 181.447Z" fill="#3F3D56"/>
<path d="M152.395 182.67L128.517 170.467L119.332 188.485L143.21 200.687L152.395 182.67Z" fill="#8CCF4D"/>
<path d="M123.007 179.437C123.249 179.437 123.445 179.241 123.445 178.999C123.445 178.757 123.249 178.561 123.007 178.561C122.766 178.561 122.57 178.757 122.57 178.999C122.57 179.241 122.766 179.437 123.007 179.437Z" fill="#E6E8EC"/>
<path d="M148.853 192.987C149.255 192.987 149.581 192.661 149.581 192.259C149.581 191.857 149.255 191.531 148.853 191.531C148.452 191.531 148.126 191.857 148.126 192.259C148.126 192.661 148.452 192.987 148.853 192.987Z" fill="#E6E8EC"/>
<path d="M136.606 187.102C136.551 193.704 150.188 195.106 150.188 195.106L153.671 195.653L155.234 195.9L155.885 189.45C155.885 189.45 155.169 189.341 154.277 189.133C152.954 188.826 151.243 188.295 150.887 187.545C150.313 186.302 136.644 180.499 136.606 187.102Z" fill="#EE8E9E"/>
<path opacity="0.1" d="M157.482 144.416C157.795 144.439 158.091 144.571 158.318 144.788C158.701 145.199 158.723 145.927 159.226 146.179C159.414 146.258 159.621 146.281 159.822 146.244C161.15 146.058 161.916 144.558 163.195 144.142C163.939 143.951 164.726 144.018 165.426 144.334C165.711 144.426 165.967 144.59 166.17 144.81C166.596 145.358 166.296 146.179 166.492 146.847C166.766 147.777 167.876 148.144 168.833 148.265C169.789 148.385 170.872 148.456 171.512 149.179C171.723 149.45 171.875 149.763 171.957 150.097C172.039 150.431 172.05 150.779 171.987 151.117C171.93 151.352 171.93 151.598 171.987 151.834C172.25 152.584 173.546 152.469 173.885 151.878C174.136 151.445 174.06 151.089 174.645 150.969C175.063 150.936 175.482 151.009 175.864 151.183C176.882 151.532 177.954 151.697 179.03 151.67C179.714 150.208 180.082 148.619 180.11 147.005C180.138 145.391 179.825 143.79 179.191 142.306C178.557 140.822 177.618 139.489 176.433 138.394C175.249 137.299 173.847 136.467 172.319 135.952C170.791 135.438 169.172 135.252 167.568 135.408C165.963 135.564 164.41 136.058 163.01 136.857C161.609 137.656 160.393 138.743 159.441 140.046C158.49 141.348 157.824 142.837 157.487 144.416H157.482Z" fill="black"/>
<path d="M171.982 151.533C171.925 151.297 171.925 151.051 171.982 150.816C172.044 150.478 172.034 150.131 171.952 149.798C171.87 149.465 171.718 149.153 171.506 148.883C170.867 148.155 169.789 148.089 168.827 147.963C167.865 147.838 166.76 147.476 166.487 146.546C166.29 145.878 166.591 145.062 166.164 144.514C165.965 144.291 165.707 144.126 165.421 144.038C164.721 143.721 163.934 143.652 163.19 143.841C161.91 144.257 161.145 145.757 159.816 145.943C159.616 145.983 159.408 145.96 159.22 145.878C158.717 145.626 158.673 144.898 158.313 144.487C157.706 143.847 156.552 144.263 155.814 143.786C155.366 143.412 155.077 142.882 155.005 142.303C154.674 141.229 154.599 140.093 154.786 138.985C155.218 137.129 156.88 135.854 157.935 134.26C158.925 132.782 159.483 130.91 160.964 129.93C162.446 128.95 164.354 129.169 166.033 129.667C166.805 129.943 167.599 130.152 168.406 130.291C169.757 130.456 171.113 130.089 172.469 130.045C174.39 129.983 176.279 130.56 177.838 131.687C178.189 131.917 178.488 132.219 178.713 132.574C178.938 133.077 179.072 133.617 179.106 134.167C179.266 135.201 179.625 136.194 180.162 137.091C180.577 137.797 181.108 138.432 181.485 139.16C181.907 139.874 182.036 140.724 181.846 141.531C181.715 141.941 181.463 142.314 181.365 142.735C181.146 143.71 181.786 144.646 182.223 145.544C182.649 146.365 182.85 147.285 182.808 148.21C182.785 148.671 182.666 149.122 182.46 149.534C182.254 149.947 181.965 150.313 181.611 150.608C180.868 151.124 179.983 151.394 179.079 151.38C177.983 151.413 176.89 151.248 175.853 150.892C175.47 150.722 175.052 150.648 174.634 150.679C174.049 150.799 174.125 151.155 173.874 151.588C173.54 152.168 172.25 152.283 171.982 151.533Z" fill="#3F3D56"/>
<path opacity="0.1" d="M165.82 216.106L172.266 211.059L182.403 201.057L179.057 200.903C178.664 201.259 178.414 201.745 178.352 202.272C178.303 203.493 175.618 202.354 174.213 203.055C172.808 203.756 165.973 212.526 164.775 212.466C163.578 212.406 162.627 211.858 162.124 212.707L162.091 212.761C161.891 212.992 161.623 213.151 161.325 213.216L165.82 216.106Z" fill="black"/>
<path d="M152.834 215.756L156.071 226.109L156.579 227.751L158.121 227.33L161.522 226.393L176.657 222.233C178.563 222.15 180.429 221.653 182.125 220.776C184.986 219.171 188.26 218.456 191.529 218.723C193.53 218.909 195.756 218.044 197.604 214.628C197.604 214.628 201.797 202.228 191.212 198.675C180.626 195.122 180.118 200.564 180.118 200.564L179.97 200.652C179.56 200.914 178.412 201.746 178.368 202.743C178.319 203.964 175.634 202.83 174.229 203.526C172.824 204.221 165.989 212.997 164.792 212.937C163.594 212.876 162.643 212.329 162.14 213.183L162.107 213.238C161.735 213.747 160.625 213.867 159.887 213.884C159.658 213.896 159.428 213.896 159.198 213.884L159.1 213.911L158.335 214.141L152.834 215.756Z" fill="#65617D"/>
<path opacity="0.1" d="M153.671 195.659L155.234 195.905L155.885 189.456C155.885 189.456 155.169 189.346 154.277 189.138C154.513 190.042 153.977 193.518 153.671 195.659Z" fill="black"/>
<path opacity="0.1" d="M194.514 165.515C194.514 165.515 199.157 164.163 198.008 177.368C197.211 185.427 193.789 193.001 188.27 198.922C188.27 198.922 178.379 203.268 173.934 202.568C169.489 201.867 166.246 201.719 166.246 201.719C164.846 201.011 163.313 200.603 161.746 200.52C159.253 200.422 154.01 198.878 153.906 198.369C153.802 197.859 155.207 190.518 154.605 189.971C154.605 189.971 161.599 190.255 162.299 190.759C162.998 191.263 163.999 190.907 164.748 190.759C165.497 190.611 167.794 188.618 172.337 190.37C172.337 190.37 173.885 190.518 174.486 190.118C174.976 189.89 175.535 189.854 176.05 190.02C176.439 189.89 176.807 189.706 177.143 189.472C177.291 189.275 178.494 189.472 178.494 189.472C178.566 189.504 178.643 189.521 178.722 189.52C178.8 189.519 178.877 189.502 178.948 189.468C179.02 189.435 179.083 189.387 179.133 189.327C179.184 189.268 179.222 189.197 179.243 189.122C179.401 188.714 179.639 188.342 179.943 188.027C179.943 188.027 181.288 180.428 183.836 177.576C184.039 177.398 184.196 177.172 184.291 176.919C184.386 176.666 184.418 176.393 184.383 176.125C184.175 175.315 188.522 163.911 194.514 165.515Z" fill="black"/>
<path d="M194.389 164.497C194.389 164.497 199.036 163.15 197.888 176.35C197.093 184.41 193.671 191.984 188.15 197.903C188.15 197.903 178.259 202.256 173.814 201.555C169.368 200.854 166.121 200.69 166.121 200.69C164.722 199.981 163.191 199.573 161.626 199.491C159.127 199.387 153.884 197.849 153.785 197.339C153.687 196.83 155.081 189.489 154.485 188.936C154.485 188.936 161.478 189.226 162.178 189.73C162.878 190.233 163.873 189.872 164.622 189.73C165.371 189.587 167.668 187.589 172.217 189.335C172.217 189.335 173.764 189.489 174.36 189.089C174.851 188.862 175.408 188.825 175.924 188.985C176.312 188.853 176.68 188.669 177.018 188.438C177.165 188.235 178.363 188.438 178.363 188.438C178.434 188.47 178.512 188.486 178.59 188.485C178.669 188.485 178.746 188.467 178.817 188.434C178.888 188.401 178.951 188.352 179.002 188.293C179.053 188.233 179.09 188.163 179.112 188.087C179.27 187.679 179.508 187.307 179.812 186.992C179.812 186.992 181.162 179.393 183.71 176.541C183.914 176.363 184.07 176.138 184.165 175.884C184.261 175.631 184.292 175.359 184.257 175.09C184.055 174.302 188.396 162.915 194.389 164.497Z" fill="#3F3D56"/>
<path opacity="0.1" d="M158.318 214.114L164.912 222.107L164.956 222.063C165.005 221.91 165.656 220.212 165.503 220.108C165.35 220.004 164.207 217.508 161.91 216.457C160.742 215.887 159.761 214.994 159.084 213.884L158.318 214.114Z" fill="black"/>
<path opacity="0.1" d="M158.406 227.948L159.127 228.359C159.127 228.359 160.8 227.017 162.468 225.665C164.136 224.313 165.749 222.988 165.749 222.928C165.749 222.868 166.449 221.077 166.296 220.979C166.142 220.88 165.874 220.234 165.24 219.43C160.768 218.176 163.6 221.286 163.994 221.428C163.994 221.428 158.553 220.174 158.252 226.114C158.227 226.729 158.278 227.346 158.406 227.948Z" fill="black"/>
<path d="M163.923 230.461L164.874 231.008L174.514 231.255C175.594 231.913 176.737 232.463 177.925 232.897C178.083 232.944 178.244 232.979 178.407 233.001C179.301 233.074 180.2 233.091 181.097 233.051C181.835 233.051 182.403 233.001 182.403 233.001C182.403 233.001 181.95 220.831 181.605 219.55C181.441 218.937 180.632 219.068 179.834 219.375C179.235 219.62 178.657 219.913 178.106 220.251C178.106 220.251 174.016 220.65 173.365 221.001C172.715 221.351 170.867 220.798 169.718 221.001C168.57 221.203 166.52 219.649 166.52 219.649C160.926 217.798 164.076 221.247 164.475 221.4C164.475 221.4 159.007 220.147 158.728 226.087C158.449 232.027 163.923 230.461 163.923 230.461Z" fill="#3F3D56"/>
<path d="M177.86 225.764C177.964 228.282 179.927 231.408 181.097 233.062C181.835 233.062 182.403 233.012 182.403 233.012C182.403 233.012 181.95 220.842 181.605 219.561C181.441 218.948 180.632 219.079 179.834 219.386C178.866 221.203 177.772 223.727 177.86 225.764Z" fill="#565387"/>
<path opacity="0.1" d="M177.86 225.764C177.964 228.282 179.927 231.408 181.097 233.062C181.835 233.062 182.403 233.012 182.403 233.012C182.403 233.012 181.95 220.842 181.605 219.561C181.441 218.948 180.632 219.079 179.834 219.386C178.866 221.203 177.772 223.727 177.86 225.764Z" fill="black"/>
<path opacity="0.05" d="M176.208 226.098C176.876 228.528 176.865 231.255 177.925 232.908C178.083 232.955 178.244 232.99 178.407 233.012C179.301 233.085 180.2 233.102 181.097 233.061C181.835 233.061 182.403 233.012 182.403 233.012C182.403 233.012 181.95 220.842 181.605 219.561C181.441 218.948 180.632 219.079 179.834 219.386C179.235 219.631 178.657 219.924 178.106 220.262C178.106 220.262 175.361 222.983 176.208 226.098Z" fill="black"/>
<path opacity="0.1" d="M142.954 201.423C142.954 201.423 147.744 202.978 151.801 208.508L142.954 201.423Z" fill="black"/>
<g opacity="0.1">
<path opacity="0.1" d="M181.862 141.41C181.862 141.449 181.862 141.481 181.835 141.52C181.789 141.663 181.732 141.802 181.665 141.936C181.718 141.756 181.784 141.58 181.862 141.41Z" fill="black"/>
<path opacity="0.1" d="M154.775 138.985C154.856 138.635 154.981 138.296 155.147 137.978C155.147 138.06 155.092 138.147 155.07 138.235C154.888 139.343 154.965 140.479 155.294 141.553C155.367 142.131 155.654 142.66 156.098 143.036C156.842 143.513 157.996 143.096 158.602 143.737C158.985 144.148 159.007 144.876 159.51 145.128C159.697 145.21 159.905 145.233 160.106 145.193C161.435 145.007 162.2 143.507 163.48 143.091C164.224 142.899 165.011 142.969 165.71 143.288C165.997 143.376 166.254 143.541 166.454 143.764C166.881 144.312 166.58 145.128 166.777 145.795C167.05 146.726 168.16 147.093 169.117 147.213C170.074 147.334 171.156 147.405 171.796 148.133C172.008 148.403 172.16 148.715 172.242 149.048C172.324 149.381 172.334 149.728 172.272 150.066C172.214 150.301 172.214 150.547 172.272 150.783C172.534 151.533 173.83 151.418 174.169 150.827C174.421 150.394 174.344 150.038 174.929 149.918C175.347 149.887 175.766 149.961 176.148 150.131C177.186 150.487 178.278 150.652 179.374 150.619C180.278 150.633 181.163 150.363 181.906 149.847C182.231 149.591 182.496 149.268 182.682 148.9C182.513 149.57 182.129 150.166 181.589 150.597C180.846 151.113 179.961 151.383 179.057 151.369C177.961 151.402 176.868 151.237 175.831 150.881C175.449 150.711 175.03 150.637 174.612 150.668C174.027 150.788 174.103 151.144 173.857 151.577C173.513 152.168 172.217 152.283 171.955 151.533C171.9 151.297 171.9 151.052 171.955 150.816C172.017 150.478 172.007 150.131 171.925 149.798C171.843 149.465 171.691 149.153 171.479 148.883C170.839 148.155 169.762 148.089 168.8 147.963C167.837 147.838 166.733 147.476 166.46 146.546C166.263 145.878 166.563 145.062 166.137 144.514C165.939 144.291 165.684 144.127 165.399 144.038C164.697 143.721 163.909 143.652 163.163 143.841C161.889 144.257 161.118 145.757 159.789 145.943C159.588 145.983 159.38 145.96 159.193 145.878C158.69 145.626 158.646 144.898 158.285 144.487C157.678 143.847 156.53 144.263 155.787 143.786C155.339 143.412 155.05 142.882 154.977 142.303C154.652 141.228 154.583 140.092 154.775 138.985Z" fill="black"/>
</g>
<path opacity="0.1" d="M182.639 179.016C181.72 180.253 180.676 181.397 179.866 182.7C178.987 183.985 178.56 185.526 178.653 187.08C179.489 186.22 179.877 185.027 180.402 183.948C181.299 182.12 182.633 180.571 183.765 178.895C183.978 178.572 185.356 176.705 184.662 176.629C184.082 176.547 182.95 178.594 182.639 179.016Z" fill="black"/>
<path d="M187.56 296.157C188.221 298.281 188.888 300.411 189.714 302.475C191.201 306.063 193.073 309.479 195.296 312.663C196.73 314.759 198.27 316.78 199.911 318.718C201.967 321.143 204.285 323.585 204.985 326.684C205.406 328.474 205.264 330.341 205.439 332.158C205.614 333.976 206.21 335.925 207.692 337.02C208.747 337.803 210.097 338.038 211.393 338.241C212.323 338.388 213.482 338.438 213.963 337.633C214.131 337.304 214.219 336.94 214.22 336.571L214.444 333.894C214.488 333.313 214.696 332.574 215.275 332.547C215.855 332.519 216.145 333.291 216.637 333.642C217.293 334.102 218.277 333.642 218.638 332.947C218.938 332.194 218.957 331.358 218.693 330.592C218.295 329.069 217.579 327.647 216.592 326.42C215.605 325.193 214.37 324.19 212.968 323.475C211.994 323.082 211.06 322.596 210.179 322.025C209.285 321.245 208.543 320.306 207.992 319.254C202.918 310.889 197.817 302.48 194.236 293.376C193.53 291.749 193.053 290.032 192.819 288.273C192.644 286.483 192.923 284.682 193.038 282.886C193.25 279.661 192.951 276.421 192.152 273.289C191.978 272.467 191.669 271.679 191.239 270.957C189.763 268.718 186.318 268.384 184.131 269.928C183.326 270.548 182.658 271.329 182.171 272.222C181.683 273.114 181.386 274.099 181.299 275.112C181.14 276.93 182.185 278.813 182.715 280.505C184.323 285.728 185.937 290.945 187.56 296.157Z" fill="#A1616A"/>
<path opacity="0.05" d="M187.56 296.157C188.221 298.281 188.888 300.411 189.714 302.475C191.201 306.063 193.073 309.479 195.296 312.663C196.73 314.759 198.27 316.78 199.911 318.718C201.967 321.143 204.285 323.585 204.985 326.684C205.406 328.474 205.264 330.341 205.439 332.158C205.614 333.976 206.21 335.925 207.692 337.02C208.747 337.803 210.097 338.038 211.393 338.241C212.323 338.388 213.482 338.438 213.963 337.633C214.131 337.304 214.219 336.94 214.22 336.571L214.444 333.894C214.488 333.313 214.696 332.574 215.275 332.547C215.855 332.519 216.145 333.291 216.637 333.642C217.293 334.102 218.277 333.642 218.638 332.947C218.938 332.194 218.957 331.358 218.693 330.592C218.295 329.069 217.579 327.647 216.592 326.42C215.605 325.193 214.37 324.19 212.968 323.475C211.994 323.082 211.06 322.596 210.179 322.025C209.285 321.245 208.543 320.306 207.992 319.254C202.918 310.889 197.817 302.48 194.236 293.376C193.53 291.749 193.053 290.032 192.819 288.273C192.644 286.483 192.923 284.682 193.038 282.886C193.25 279.661 192.951 276.421 192.152 273.289C191.978 272.467 191.669 271.679 191.239 270.957C189.763 268.718 186.318 268.384 184.131 269.928C183.326 270.548 182.658 271.329 182.171 272.222C181.683 273.114 181.386 274.099 181.299 275.112C181.14 276.93 182.185 278.813 182.715 280.505C184.323 285.728 185.937 290.945 187.56 296.157Z" fill="black"/>
<path d="M155.683 385.602C156.672 385.946 157.724 386.073 158.766 385.974C158.843 385.12 159.991 384.928 160.844 384.972C161.257 384.959 161.666 385.053 162.031 385.246C162.244 385.383 162.408 385.58 162.616 385.722C162.986 385.926 163.402 386.033 163.824 386.034L168.264 386.407C170.243 386.576 172.305 386.73 174.158 386.023C174.527 385.906 174.856 385.686 175.104 385.388C175.607 384.666 175.104 383.631 174.41 383.105C173.715 382.58 172.819 382.344 172.119 381.808C170.577 380.631 170.363 378.43 169.549 376.667C168.97 375.556 168.255 374.52 167.422 373.585C166.818 372.782 166.114 372.059 165.328 371.433C163.545 370.147 161.5 370.174 159.406 369.988C157.93 369.857 156.541 369.769 155.48 371.083C154.168 372.725 154.693 376.01 154.775 377.926C154.877 380.505 155.181 383.071 155.683 385.602Z" fill="#514E7F"/>
<path opacity="0.05" d="M155.683 385.602C156.672 385.946 157.724 386.073 158.766 385.974C158.843 385.12 159.991 384.928 160.844 384.972C161.257 384.959 161.666 385.053 162.031 385.246C162.244 385.383 162.408 385.58 162.616 385.722C162.986 385.926 163.402 386.033 163.824 386.034L168.264 386.407C170.243 386.576 172.305 386.73 174.158 386.023C174.527 385.906 174.856 385.686 175.104 385.388C175.607 384.666 175.104 383.631 174.41 383.105C173.715 382.58 172.819 382.344 172.119 381.808C170.577 380.631 170.363 378.43 169.549 376.667C168.97 375.556 168.255 374.52 167.422 373.585C166.818 372.782 166.114 372.059 165.328 371.433C163.545 370.147 161.5 370.174 159.406 369.988C157.93 369.857 156.541 369.769 155.48 371.083C154.168 372.725 154.693 376.01 154.775 377.926C154.877 380.505 155.181 383.071 155.683 385.602Z" fill="black"/>
<path d="M157.476 299.13C156.12 299.568 155.53 301.259 155.781 302.666C156.033 304.073 156.875 305.289 157.569 306.537C159.548 310.079 160.401 314.13 162.063 317.826C163.305 320.563 164.983 323.136 166.208 325.906C167.433 328.676 168.193 331.802 167.449 334.742C167.088 336.171 166.388 337.48 165.924 338.887C165.464 340.412 165.163 341.98 165.027 343.567C164.425 348.959 164.317 354.394 164.704 359.805C164.708 360.465 164.845 361.117 165.109 361.721C165.388 362.269 165.869 362.816 165.656 363.364C165.563 363.588 165.361 363.752 165.262 363.971C164.978 364.585 165.546 365.236 166.066 365.674C165.973 365.839 165.848 365.983 165.699 366.099C165.55 366.214 165.379 366.299 165.197 366.347C165.569 366.585 165.855 366.936 166.013 367.349C166.17 367.763 166.191 368.216 166.071 368.641C165.612 368.712 165.585 369.419 165.875 369.791C166.164 370.163 166.624 370.393 166.831 370.815C166.954 371.158 166.94 371.535 166.794 371.869C166.648 372.203 166.379 372.468 166.044 372.61C165.361 372.874 164.616 372.931 163.901 372.775C162.688 372.606 161.491 372.342 160.319 371.986C159.707 371.866 159.158 371.528 158.775 371.035C158.391 370.543 158.198 369.928 158.231 369.304C157.96 367.076 157.878 364.828 157.985 362.586C158.176 351.725 157.985 340.852 157.514 329.996C157.323 325.616 156.011 321.373 154.321 317.344C153.387 315.285 152.349 313.275 151.21 311.322C148.771 306.854 146.617 301.905 147.175 296.841C147.235 296.294 147.432 295.642 147.973 295.555C148.185 295.532 148.398 295.568 148.591 295.659C149.714 296.184 150.801 296.784 151.844 297.454C153.559 298.461 155.491 299.036 157.476 299.13Z" fill="#464353"/>
<path opacity="0.05" d="M157.476 299.13C156.12 299.568 155.53 301.259 155.781 302.666C156.033 304.073 156.875 305.289 157.569 306.537C159.548 310.079 160.401 314.13 162.063 317.826C163.305 320.563 164.983 323.136 166.208 325.906C167.433 328.676 168.193 331.802 167.449 334.742C167.088 336.171 166.388 337.48 165.924 338.887C165.464 340.412 165.163 341.98 165.027 343.567C164.425 348.959 164.317 354.394 164.704 359.805C164.708 360.465 164.845 361.117 165.109 361.721C165.388 362.269 165.869 362.816 165.656 363.364C165.563 363.588 165.361 363.752 165.262 363.971C164.978 364.585 165.546 365.236 166.066 365.674C165.973 365.839 165.848 365.983 165.699 366.099C165.55 366.214 165.379 366.299 165.197 366.347C165.569 366.585 165.855 366.936 166.013 367.349C166.17 367.763 166.191 368.216 166.071 368.641C165.612 368.712 165.585 369.419 165.875 369.791C166.164 370.163 166.624 370.393 166.831 370.815C166.954 371.158 166.94 371.535 166.794 371.869C166.648 372.203 166.379 372.468 166.044 372.61C165.361 372.874 164.616 372.931 163.901 372.775C162.688 372.606 161.491 372.342 160.319 371.986C159.707 371.866 159.158 371.528 158.775 371.035C158.391 370.543 158.198 369.928 158.231 369.304C157.96 367.076 157.878 364.828 157.985 362.586C158.176 351.725 157.985 340.852 157.514 329.996C157.323 325.616 156.011 321.373 154.321 317.344C153.387 315.285 152.349 313.275 151.21 311.322C148.771 306.854 146.617 301.905 147.175 296.841C147.235 296.294 147.432 295.642 147.973 295.555C148.185 295.532 148.398 295.568 148.591 295.659C149.714 296.184 150.801 296.784 151.844 297.454C153.559 298.461 155.491 299.036 157.476 299.13Z" fill="black"/>
<path d="M139.143 285.925C138.436 285.47 137.62 285.213 136.781 285.18C135.807 285.229 134.976 285.87 134.216 286.483C133.316 287.175 132.461 287.925 131.657 288.728C129.993 290.504 128.834 292.693 128.299 295.069C127.765 297.445 127.875 299.92 128.617 302.239C129.421 304.654 130.892 306.783 132.346 308.869L135.299 313.117C139.804 319.594 144.31 326.07 149.028 332.394C149.029 332.549 149.08 332.7 149.172 332.825C149.265 332.95 149.394 333.042 149.542 333.089C149.712 333.133 149.925 333.127 150.029 333.27C150.077 333.358 150.098 333.459 150.089 333.56C150.079 334.027 149.99 334.49 149.827 334.928C149.75 335.073 149.731 335.241 149.772 335.399C149.925 335.755 150.57 335.552 150.778 335.886C150.915 336.105 150.745 336.39 150.565 336.576C150.384 336.762 150.16 336.97 150.193 337.228C150.226 337.485 150.674 337.775 150.658 338.093C150.658 338.279 150.494 338.421 150.379 338.569C150.218 338.805 150.145 339.089 150.172 339.373C150.199 339.657 150.324 339.923 150.527 340.124C150.838 343.212 149.16 346.146 148.826 349.223C148.279 354.084 150.494 358.831 150.762 363.709C150.746 364.258 150.85 364.803 151.068 365.307C151.522 366.15 152.708 366.659 152.648 367.618C152.562 368.011 152.451 368.399 152.315 368.778C152.222 369.326 152.484 369.873 152.495 370.421C152.506 370.968 152.019 371.641 151.505 371.422C151.892 372.714 152.236 374.017 152.539 375.331L162.873 376.185C162.984 375.255 162.953 374.314 162.78 373.393C162.567 372.391 162.118 371.461 161.883 370.47C161.73 369.982 161.687 369.466 161.757 368.96C161.827 368.453 162.008 367.969 162.288 367.541C162.018 367.544 161.756 367.452 161.548 367.281C161.34 367.109 161.199 366.87 161.15 366.605C161.064 366.071 161.073 365.526 161.178 364.995C161.451 362.296 160.319 359.635 160.352 356.926C160.385 354.79 161.134 352.737 161.511 350.641C162.32 346.151 161.478 341.284 163.474 337.184C164.683 334.715 166.356 331.978 165 329.585C164.333 328.403 163.152 327.592 162.381 326.476C161.752 325.42 161.281 324.278 160.981 323.087C159.39 318.16 156.814 313.583 154.556 308.896C153.93 307.722 153.464 306.468 153.173 305.168C153.013 304.028 152.955 302.875 152.998 301.725C152.998 299.659 152.872 297.594 152.621 295.544C152.57 294.645 152.313 293.771 151.872 292.987C151.425 292.394 150.868 291.894 150.231 291.514C146.841 289.188 142.806 287.857 139.143 285.925Z" fill="#464353"/>
<path d="M151.527 389.396C152.519 389.736 153.572 389.861 154.616 389.762C154.693 388.908 155.836 388.717 156.689 388.761C157.101 388.747 157.51 388.841 157.875 389.034C158.088 389.171 158.252 389.374 158.466 389.511C158.835 389.716 159.251 389.824 159.674 389.823L164.108 390.195C166.093 390.365 168.149 390.523 170.008 389.812C170.377 389.696 170.704 389.476 170.949 389.177C171.452 388.454 170.949 387.425 170.254 386.899C169.56 386.374 168.663 386.133 167.969 385.596C166.421 384.419 166.213 382.224 165.393 380.461C164.82 379.346 164.107 378.309 163.272 377.373C162.666 376.572 161.96 375.85 161.172 375.227C159.395 373.935 157.345 373.963 155.256 373.777C153.774 373.645 152.386 373.563 151.33 374.871C150.018 376.514 150.543 379.799 150.62 381.72C150.722 384.298 151.026 386.865 151.527 389.396Z" fill="#514E7F"/>
<path d="M197.33 268.006C202.983 268.006 207.566 263.418 207.566 257.758C207.566 252.098 202.983 247.509 197.33 247.509C191.677 247.509 187.095 252.098 187.095 257.758C187.095 263.418 191.677 268.006 197.33 268.006Z" fill="#A1616A"/>
<path d="M187.674 260.802C186.209 262.066 184.104 262.159 182.179 262.356C178.064 262.78 174.058 263.941 170.353 265.784C169.84 266.005 169.375 266.325 168.986 266.725C168.653 267.159 168.416 267.66 168.291 268.192C167.939 269.345 167.807 270.554 167.903 271.756C168.037 272.922 168.372 274.056 168.893 275.107C170.313 278.051 172.505 280.555 175.235 282.35C175.716 282.709 176.262 282.971 176.843 283.122C178.188 283.401 179.489 282.624 180.818 282.273C182.026 281.958 183.3 281.997 184.487 282.388C185.58 282.76 186.778 283.439 187.86 282.985C188.553 282.597 189.092 281.982 189.386 281.244C190.431 279.266 191.364 277.229 192.18 275.145C192.473 274.331 192.81 273.535 193.191 272.758C194.378 270.497 196.428 268.751 197.451 266.402C197.554 266.223 197.617 266.023 197.634 265.817C197.651 265.61 197.622 265.402 197.549 265.209C197.36 264.947 197.097 264.747 196.795 264.634C195.283 263.767 193.905 262.685 192.705 261.42C192.032 260.774 190.796 259.028 189.829 258.875C188.741 258.688 188.412 260.167 187.674 260.802Z" fill="#A1616A"/>
<path d="M187.915 281.627C186.728 282.175 185.329 281.939 184.044 281.671C180.73 280.976 177.379 280.275 174.311 278.841C173.353 278.473 172.522 277.834 171.922 277.001C171.549 276.289 171.322 275.509 171.255 274.707L170.708 270.875C170.511 269.545 170.85 268.313 170.883 266.966C170.904 266.817 170.895 266.665 170.856 266.519C170.818 266.373 170.751 266.237 170.659 266.117C170.472 265.96 170.23 265.883 169.986 265.904C168.45 265.931 167.52 267.546 166.443 268.641C165.821 269.273 165.077 269.772 164.256 270.108C163.272 270.514 162.069 270.798 161.659 271.784C161.495 272.194 161.517 272.66 161.342 273.07C160.653 274.713 157.717 274.165 156.968 275.808C156.754 276.267 156.771 276.842 156.421 277.204C156.071 277.565 155.415 277.559 154.873 277.647C152.736 277.997 151.702 280.467 149.876 281.633C148.339 282.618 146.36 282.596 144.703 283.363C143.785 283.79 142.97 284.458 141.997 284.737C141.024 285.016 139.925 284.868 138.88 284.896C138.769 284.885 138.657 284.898 138.55 284.932C138.444 284.967 138.346 285.024 138.262 285.098C138.198 285.197 138.155 285.309 138.137 285.426C138.119 285.543 138.126 285.663 138.159 285.777C138.665 289.014 140.005 292.063 142.046 294.625C144.087 297.186 146.759 299.17 149.799 300.383C150.152 300.496 150.487 300.658 150.794 300.865C151.724 301.56 151.888 303.055 152.943 303.548C153.324 303.682 153.735 303.708 154.129 303.623C154.524 303.538 154.888 303.345 155.18 303.066C155.762 302.505 156.31 301.909 156.82 301.281C157.783 300.273 159.048 299.607 160.423 299.381C161.692 299.179 163.108 299.327 164.136 298.544C164.556 298.157 164.947 297.74 165.306 297.296C166.067 296.584 166.971 296.043 167.958 295.708C170.653 294.642 173.501 294.015 176.394 293.852C179.09 293.704 181.862 293.951 184.41 293.075C185.072 292.869 185.681 292.524 186.198 292.062C186.746 291.469 187.153 290.759 187.39 289.987C188.309 287.298 188.49 284.411 187.915 281.627Z" fill="#4AF42E"/>
<path d="M174.721 266.523C175.476 266.451 176.236 266.523 176.996 266.523C177.887 266.523 178.767 266.304 179.659 266.298C181.07 266.321 182.437 266.795 183.56 267.651C184.684 268.507 185.504 269.7 185.903 271.056C185.978 271.272 185.991 271.505 185.941 271.729C185.912 271.839 185.844 271.936 185.749 272C185.655 272.064 185.54 272.092 185.427 272.079C185.131 271.27 184.744 270.496 184.273 269.775C183.426 268.616 182.218 267.773 180.84 267.377C179.465 266.987 178.017 266.934 176.619 267.223C176.034 267.333 175.465 267.486 174.896 267.645L172.162 268.4C171.659 268.537 171.151 268.674 170.664 268.855C170.287 268.997 169.642 269.517 169.27 269.539C168.767 269.539 169.172 269.101 169.396 268.806C169.842 268.196 170.467 267.74 171.184 267.503C172.32 267.037 173.507 266.708 174.721 266.523Z" fill="#6C63FF"/>
<path d="M181.622 297.307C182.283 299.431 182.945 301.56 183.776 303.624C185.261 307.214 187.133 310.63 189.358 313.813C190.792 315.909 192.332 317.93 193.973 319.868C196.024 322.293 198.315 324.735 199.047 327.828C199.468 329.623 199.326 331.49 199.501 333.302C199.676 335.115 200.272 337.069 201.748 338.164C202.809 338.941 204.16 339.177 205.455 339.385C206.379 339.533 207.539 339.582 208.025 338.777C208.19 338.447 208.278 338.084 208.282 337.715L208.501 335.038C208.55 334.458 208.758 333.719 209.332 333.691C209.906 333.664 210.207 334.436 210.699 334.786C211.355 335.246 212.339 334.786 212.7 334.091C212.997 333.338 213.017 332.503 212.755 331.737C212.355 330.214 211.638 328.793 210.651 327.566C209.665 326.34 208.431 325.336 207.03 324.62C206.055 324.225 205.12 323.739 204.236 323.169C203.34 322.389 202.598 321.448 202.049 320.393C196.969 312.033 191.868 303.624 188.292 294.515C187.587 292.889 187.108 291.174 186.871 289.418C186.701 287.627 186.974 285.826 187.095 284.031C187.307 280.805 187.008 277.566 186.209 274.433C186.035 273.61 185.724 272.822 185.29 272.101C183.82 269.857 180.369 269.528 178.182 271.072C177.376 271.692 176.708 272.473 176.219 273.366C175.731 274.258 175.433 275.243 175.345 276.257C175.186 278.074 176.236 279.957 176.761 281.649C178.376 286.876 179.996 292.095 181.622 297.307Z" fill="#A1616A"/>
<path d="M212.219 250.509C212.301 249.655 211.535 248.867 210.666 248.319C209.75 247.849 208.871 247.311 208.036 246.71C207.26 246.036 206.833 245.16 206.057 244.487C205.174 243.814 204.172 243.315 203.104 243.014C200.832 242.217 198.447 241.79 196.04 241.75C193.607 241.75 191.119 242.297 189.287 243.54C188.835 243.825 188.445 244.197 188.139 244.635C187.85 245.16 187.665 245.737 187.592 246.332C187.156 248.169 186.565 249.966 185.826 251.703C185.066 253.635 184.257 255.639 182.469 257.134C180.555 258.727 177.63 259.646 176.367 261.574C176.227 261.745 176.129 261.946 176.081 262.162C176.033 262.378 176.035 262.602 176.088 262.816C176.269 263.303 176.848 263.637 177.384 263.944C180.49 265.729 183.169 268.045 184.547 270.809C185.925 273.574 185.886 276.831 183.923 279.377C183.202 280.319 182.207 281.436 182.912 282.383C184.005 283.822 187.663 282.996 188.516 284.518C188.784 285.005 188.626 285.558 188.626 286.089C188.626 287.688 190.162 289.106 192.027 289.845C193.891 290.584 196.051 290.759 198.15 290.852C198.708 289.598 198.763 288.177 198.304 286.883C198.164 286.604 198.109 286.29 198.145 285.98C198.302 285.635 198.545 285.337 198.85 285.115C201.092 282.99 200.616 279.87 199.271 277.346C197.926 274.822 195.827 272.517 195.045 269.862C194.657 268.543 194.657 267.059 195.701 265.964C196.3 265.438 196.946 264.967 197.631 264.557C198.854 263.726 199.796 262.542 200.332 261.163C200.961 259.416 200.879 257.331 202.705 256.154C204.46 255.059 206.926 255.376 208.867 254.626C210.36 254.035 212.099 251.763 212.219 250.509Z" fill="#464353"/>
<path d="M318.238 336.292C309.9 332.837 307.45 330.341 307.45 325.342C307.45 321.51 309.134 317.086 316.516 317.086C320.596 317.026 324.604 318.169 328.042 320.371L330.442 314.015C327.659 312.373 323.733 310.845 317.981 310.654V301.347H313.131V311.037C304.312 312.477 299.205 318.521 299.205 326.487C299.205 334.835 304.126 339.253 313.924 343.091C321.021 345.987 324.734 349.25 324.734 354.528C324.734 360.002 320.136 363.933 313.328 363.933C307.964 363.933 301.884 362.11 298.434 359.805L296.132 366.232C299.489 368.636 305.241 370.36 310.797 370.459V380.149H319.047V370.169C328.889 368.526 334.188 361.409 334.188 353.854C334.188 345.314 328.113 340.321 318.238 336.292Z" fill="url(#paint1_linear)"/>
<path d="M310.819 377.959V368.269C305.263 368.17 299.511 366.446 296.154 364.043L298.456 357.615C301.906 359.92 307.986 361.743 313.35 361.743C320.157 361.743 324.734 357.812 324.734 352.338C324.734 347.06 320.999 343.797 313.902 340.918C304.126 337.085 299.183 332.662 299.183 324.313C299.183 316.347 304.29 310.303 313.109 308.864V299.173H317.959V308.48C323.711 308.672 327.637 310.205 330.42 311.842L328.02 318.17C324.583 315.968 320.575 314.826 316.494 314.886C309.113 314.886 307.429 319.304 307.429 323.141C307.429 328.129 309.878 330.625 318.216 334.091C328.091 338.12 334.166 343.113 334.166 351.653C334.166 359.236 328.895 366.336 319.026 367.968V377.959H310.819Z" fill="#8CCF4D"/>
</g>
<defs>
<linearGradient id="paint0_linear" x1="167.209" y1="232.706" x2="167.209" y2="128.194" gradientUnits="userSpaceOnUse">
<stop stop-color="#808080" stop-opacity="0.25"/>
<stop offset="0.54" stop-color="#808080" stop-opacity="0.12"/>
<stop offset="1" stop-color="#808080" stop-opacity="0.1"/>
</linearGradient>
<linearGradient id="paint1_linear" x1="21330.5" y1="56238.3" x2="23977.6" y2="56238.3" gradientUnits="userSpaceOnUse">
<stop stop-color="#808080" stop-opacity="0.25"/>
<stop offset="0.54" stop-color="#808080" stop-opacity="0.12"/>
<stop offset="1" stop-color="#808080" stop-opacity="0.1"/>
</linearGradient>
<clipPath id="clip0">
<rect width="644" height="397" fill="white"/>
</clipPath>
</defs>
</svg>
