<svg width="153" height="153" viewBox="0 0 153 153" fill="none" xmlns="http://www.w3.org/2000/svg">
<path d="M76.5 0.00311279C34.2546 0.00311279 0 34.251 0 76.4998C0 118.748 34.2513 152.996 76.5 152.996C118.752 152.996 153 118.748 153 76.4998C153 34.251 118.752 0.00311279 76.5 0.00311279ZM76.5 22.8765C90.4787 22.8765 101.806 34.2073 101.806 48.1794C101.806 62.1547 90.4787 73.4822 76.5 73.4822C62.528 73.4822 51.2005 62.1547 51.2005 48.1794C51.2005 34.2073 62.528 22.8765 76.5 22.8765ZM76.4832 132.996C62.5414 132.996 49.7724 127.919 39.9234 119.515C37.5242 117.468 36.1397 114.467 36.1397 111.319C36.1397 97.1486 47.6084 85.8077 61.782 85.8077H91.2247C105.402 85.8077 116.827 97.1486 116.827 111.319C116.827 114.471 115.449 117.465 113.046 119.511C103.201 127.919 90.4283 132.996 76.4832 132.996Z" fill="white" fill-opacity="0.11"/>
</svg>
