<svg width="157" height="42" viewBox="0 0 157 42" fill="none" xmlns="http://www.w3.org/2000/svg">
<path d="M27.0668 32.7989H14.9334C14.1602 32.7989 13.5333 33.4257 13.5333 34.1989C13.5333 34.9721 14.1601 35.5989 14.9334 35.5989H27.0667C27.8398 35.5989 28.4667 34.9721 28.4667 34.1989C28.4667 33.4257 27.8399 32.7989 27.0668 32.7989Z" fill="#4AF42E"/>
<path d="M27.0668 28.3833H14.9334C14.1602 28.3833 13.5333 29.0101 13.5333 29.7833C13.5333 30.5566 14.1601 31.1834 14.9334 31.1834H27.0667C27.8398 31.1834 28.4667 30.5566 28.4667 29.7833C28.4667 29.0101 27.8399 28.3833 27.0668 28.3833Z" fill="#4AF42E"/>
<path d="M38.7334 10.9846H34.2788V2.88196C34.2788 2.10882 33.652 1.48193 32.8788 1.48193H9.12122C8.34807 1.48193 7.72119 2.10873 7.72119 2.88196V10.9846H3.26665C1.46541 10.9846 0 12.4501 0 14.2513V28.3363C0 30.1375 1.46541 31.6029 3.26665 31.6029H7.72144V39.1181C7.72144 39.8913 8.34824 40.5181 9.12146 40.5181H32.8785C33.6517 40.5181 34.2786 39.8913 34.2786 39.1181V31.6029H38.7334C40.5346 31.6029 42 30.1375 42 28.3363V14.2513C42 12.4502 40.5346 10.9846 38.7334 10.9846ZM10.5212 4.28199H31.4788V10.9846H10.5212V4.28199ZM31.4785 37.7181H10.5215C10.5215 37.4445 10.5215 26.6026 10.5215 26.2642H31.4786C31.4785 26.6111 31.4785 37.455 31.4785 37.7181ZM32.8788 19.2054H29.3151C28.542 19.2054 27.9151 18.5786 27.9151 17.8053C27.9151 17.0321 28.5419 16.4053 29.3151 16.4053H32.8788C33.6519 16.4053 34.2788 17.0321 34.2788 17.8053C34.2788 18.5786 33.652 19.2054 32.8788 19.2054Z" fill="#4AF42E"/>
<path d="M51.08 29C51 29 50.96 28.96 50.96 28.88L50.984 12.392C50.984 12.328 51.016 12.296 51.08 12.296H53.768C53.832 12.296 53.864 12.328 53.864 12.392L53.888 28.88C53.888 28.96 53.856 29 53.792 29H51.08ZM56.0951 29C56.0311 29 55.9991 28.96 55.9991 28.88L56.0471 12.392C56.0471 12.328 56.0791 12.296 56.1431 12.296H59.0711C59.1351 12.296 59.1911 12.328 59.2391 12.392L61.4231 15.56L63.6071 12.392C63.6551 12.328 63.7111 12.296 63.7751 12.296H66.7271C66.7911 12.296 66.8231 12.328 66.8231 12.392L66.8711 28.88C66.8711 28.96 66.8391 29 66.7751 29H64.0631C63.9991 29 63.9671 28.96 63.9671 28.88L63.9431 16.64L61.4231 20.288L58.9271 16.64L58.9031 28.88C58.9031 28.96 58.8711 29 58.8071 29H56.0951ZM69.0097 29C68.9297 29 68.8897 28.96 68.8897 28.88L68.9377 12.392C68.9377 12.328 68.9697 12.296 69.0337 12.296H73.6417C75.1137 12.296 76.2737 12.744 77.1217 13.64C77.9857 14.536 78.4177 15.752 78.4177 17.288C78.4177 18.424 78.1937 19.408 77.7457 20.24C77.2977 21.072 76.7137 21.712 75.9937 22.16C75.2737 22.608 74.4897 22.832 73.6417 22.832H71.8177V28.88C71.8177 28.96 71.7777 29 71.6977 29H69.0097ZM71.8177 19.928H73.6417C74.1537 19.928 74.5937 19.688 74.9617 19.208C75.3457 18.712 75.5377 18.072 75.5377 17.288C75.5377 16.664 75.3697 16.152 75.0337 15.752C74.6977 15.352 74.2337 15.152 73.6417 15.152L71.8177 15.176V19.928ZM78.7123 29C78.6483 29 78.6163 28.968 78.6163 28.904V26.192C78.6163 26.128 78.6483 26.096 78.7123 26.096H81.4243C81.4883 26.096 81.5203 26.128 81.5203 26.192V28.904C81.5203 28.968 81.4883 29 81.4243 29H78.7123ZM87.6729 29.24C86.7929 29.24 85.9929 29.024 85.2729 28.592C84.5689 28.144 84.0089 27.552 83.5929 26.816C83.1769 26.08 82.9689 25.256 82.9689 24.344L82.9929 16.856C82.9929 15.976 83.1929 15.176 83.5929 14.456C84.0089 13.72 84.5689 13.136 85.2729 12.704C85.9929 12.256 86.7929 12.032 87.6729 12.032C88.5529 12.032 89.3449 12.248 90.0489 12.68C90.7529 13.112 91.3129 13.696 91.7289 14.432C92.1449 15.152 92.3529 15.96 92.3529 16.856V17.96C92.3529 18.024 92.3209 18.056 92.2569 18.056H89.5689C89.5049 18.056 89.4729 18.024 89.4729 17.96V16.856C89.4729 16.328 89.2969 15.872 88.9449 15.488C88.6089 15.104 88.1849 14.912 87.6729 14.912C87.0969 14.912 86.6569 15.112 86.3529 15.512C86.0489 15.896 85.8969 16.344 85.8969 16.856V24.344C85.8969 24.936 86.0649 25.416 86.4009 25.784C86.7529 26.152 87.1769 26.336 87.6729 26.336C88.1849 26.336 88.6089 26.136 88.9449 25.736C89.2969 25.32 89.4729 24.856 89.4729 24.344V23.24C89.4729 23.176 89.5049 23.144 89.5689 23.144H92.2809C92.3449 23.144 92.3769 23.176 92.3769 23.24V24.344C92.3769 25.256 92.1609 26.08 91.7289 26.816C91.3129 27.552 90.7529 28.144 90.0489 28.592C89.3449 29.024 88.5529 29.24 87.6729 29.24ZM98.5719 29.24C97.7079 29.24 96.9159 29.024 96.1959 28.592C95.4919 28.144 94.9239 27.56 94.4919 26.84C94.0599 26.104 93.8439 25.296 93.8439 24.416L93.8679 16.808C93.8679 15.928 94.0759 15.128 94.4919 14.408C94.9239 13.688 95.4999 13.112 96.2199 12.68C96.9399 12.248 97.7239 12.032 98.5719 12.032C99.4359 12.032 100.22 12.248 100.924 12.68C101.628 13.112 102.188 13.688 102.604 14.408C103.036 15.128 103.252 15.928 103.252 16.808L103.276 24.416C103.276 25.296 103.06 26.104 102.628 26.84C102.212 27.56 101.644 28.144 100.924 28.592C100.22 29.024 99.4359 29.24 98.5719 29.24ZM98.5719 26.336C99.0519 26.336 99.4679 26.144 99.8199 25.76C100.188 25.36 100.372 24.912 100.372 24.416L100.348 16.808C100.348 16.28 100.18 15.832 99.8439 15.464C99.5079 15.096 99.0839 14.912 98.5719 14.912C98.0759 14.912 97.6519 15.096 97.2999 15.464C96.9479 15.816 96.7719 16.264 96.7719 16.808V24.416C96.7719 24.944 96.9479 25.4 97.2999 25.784C97.6519 26.152 98.0759 26.336 98.5719 26.336ZM105.317 29C105.189 29 105.125 28.944 105.125 28.832L105.101 12.488C105.101 12.36 105.165 12.296 105.293 12.296H107.453L111.509 21.752L111.389 12.488C111.389 12.36 111.461 12.296 111.605 12.296H113.981C114.077 12.296 114.125 12.36 114.125 12.488L114.149 28.856C114.149 28.952 114.109 29 114.029 29H111.917L107.765 20.168L107.933 28.808C107.933 28.936 107.861 29 107.717 29H105.317ZM118.633 29C118.569 29 118.537 28.96 118.537 28.88V15.2H115.417C115.337 15.2 115.297 15.16 115.297 15.08L115.321 12.392C115.321 12.328 115.353 12.296 115.417 12.296H124.537C124.617 12.296 124.657 12.328 124.657 12.392V15.08C124.657 15.16 124.625 15.2 124.561 15.2H121.417L121.441 28.88C121.441 28.96 121.409 29 121.345 29H118.633ZM125.939 29C125.875 29 125.843 28.96 125.843 28.88L125.891 12.392C125.891 12.328 125.923 12.296 125.987 12.296H130.835C131.699 12.296 132.491 12.512 133.211 12.944C133.947 13.36 134.531 13.928 134.963 14.648C135.395 15.352 135.611 16.152 135.611 17.048C135.611 17.64 135.523 18.176 135.347 18.656C135.171 19.12 134.963 19.52 134.723 19.856C134.483 20.176 134.267 20.416 134.075 20.576C134.939 21.536 135.371 22.664 135.371 23.96L135.395 28.88C135.395 28.96 135.355 29 135.275 29H132.563C132.499 29 132.467 28.976 132.467 28.928V23.96C132.467 23.384 132.259 22.888 131.843 22.472C131.443 22.04 130.947 21.824 130.355 21.824H128.771L128.747 28.88C128.747 28.96 128.715 29 128.651 29H125.939ZM128.771 18.944H130.835C131.331 18.944 131.771 18.76 132.155 18.392C132.539 18.024 132.731 17.576 132.731 17.048C132.731 16.536 132.539 16.096 132.155 15.728C131.787 15.36 131.347 15.176 130.835 15.176H128.771V18.944ZM141.744 29.24C140.88 29.24 140.088 29.024 139.368 28.592C138.664 28.144 138.096 27.56 137.664 26.84C137.232 26.104 137.016 25.296 137.016 24.416L137.04 16.808C137.04 15.928 137.248 15.128 137.664 14.408C138.096 13.688 138.672 13.112 139.392 12.68C140.112 12.248 140.896 12.032 141.744 12.032C142.608 12.032 143.392 12.248 144.096 12.68C144.8 13.112 145.36 13.688 145.776 14.408C146.208 15.128 146.424 15.928 146.424 16.808L146.448 24.416C146.448 25.296 146.232 26.104 145.8 26.84C145.384 27.56 144.816 28.144 144.096 28.592C143.392 29.024 142.608 29.24 141.744 29.24ZM141.744 26.336C142.224 26.336 142.64 26.144 142.992 25.76C143.36 25.36 143.544 24.912 143.544 24.416L143.52 16.808C143.52 16.28 143.352 15.832 143.016 15.464C142.68 15.096 142.256 14.912 141.744 14.912C141.248 14.912 140.824 15.096 140.472 15.464C140.12 15.816 139.944 16.264 139.944 16.808V24.416C139.944 24.944 140.12 25.4 140.472 25.784C140.824 26.152 141.248 26.336 141.744 26.336ZM148.369 29C148.305 29 148.273 28.96 148.273 28.88L148.297 12.416C148.297 12.336 148.337 12.296 148.417 12.296H151.081C151.161 12.296 151.201 12.336 151.201 12.416L151.177 26.048H156.121C156.201 26.048 156.241 26.088 156.241 26.168V28.88C156.241 28.96 156.201 29 156.121 29H148.369Z" fill="#0B2239"/>
</svg>
